<?xml version="1.0" encoding="utf-8" standalone="no"?>
<!DOCTYPE svg PUBLIC "-//W3C//DTD SVG 1.1//EN"
  "http://www.w3.org/Graphics/SVG/1.1/DTD/svg11.dtd">
<svg xmlns:xlink="http://www.w3.org/1999/xlink" width="460.8pt" height="345.6pt" viewBox="0 0 460.8 345.6" xmlns="http://www.w3.org/2000/svg" version="1.1">
 <metadata>
  <rdf:RDF xmlns:dc="http://purl.org/dc/elements/1.1/" xmlns:cc="http://creativecommons.org/ns#" xmlns:rdf="http://www.w3.org/1999/02/22-rdf-syntax-ns#">
   <cc:Work>
    <dc:type rdf:resource="http://purl.org/dc/dcmitype/StillImage"/>
    <dc:date>2024-05-14T15:32:30.743564</dc:date>
    <dc:format>image/svg+xml</dc:format>
    <dc:creator>
     <cc:Agent>
      <dc:title>Matplotlib v3.8.2, https://matplotlib.org/</dc:title>
     </cc:Agent>
    </dc:creator>
   </cc:Work>
  </rdf:RDF>
 </metadata>
 <defs>
  <style type="text/css">*{stroke-linejoin: round; stroke-linecap: butt}</style>
 </defs>
 <g id="figure_1">
  <g id="patch_1">
   <path d="M 0 345.6 
L 460.8 345.6 
L 460.8 0 
L 0 0 
L 0 345.6 
z
" style="fill: none"/>
  </g>
  <g id="patch_2">
   <path d="M 103.104 307.584 
L 369.216 307.584 
L 369.216 41.472 
L 103.104 41.472 
L 103.104 307.584 
z
" style="fill: none"/>
  </g>
  <g id="pane3d_1">
   <g id="patch_3">
    <path d="M 352.940131 203.388746 
L 214.814956 150.755509 
L 213.493054 52.105067 
L 359.240988 102.701831 
" style="fill: #f2f2f2; opacity: 0.5; stroke: #f2f2f2; stroke-linejoin: miter"/>
   </g>
  </g>
  <g id="pane3d_2">
   <g id="patch_4">
    <path d="M 123.23614 237.468884 
L 214.814956 150.755509 
L 213.493054 52.105067 
L 116.547416 135.600346 
" style="fill: #e6e6e6; opacity: 0.5; stroke: #e6e6e6; stroke-linejoin: miter"/>
   </g>
  </g>
  <g id="pane3d_3">
   <g id="patch_5">
    <path d="M 268.045753 298.927998 
L 352.940131 203.388746 
L 214.814956 150.755509 
L 123.23614 237.468884 
" style="fill: #ececec; opacity: 0.5; stroke: #ececec; stroke-linejoin: miter"/>
   </g>
  </g>
  <g id="grid3d_1">
   <g id="Line3DCollection_1">
    <path d="M 273.863905 292.38031 
L 129.490492 231.546816 
L 123.194081 129.875847 
" style="fill: none; stroke: #b0b0b0; stroke-width: 0.8"/>
    <path d="M 285.088091 279.748728 
L 141.565264 220.113557 
L 136.015532 118.83326 
" style="fill: none; stroke: #b0b0b0; stroke-width: 0.8"/>
    <path d="M 296.086858 267.37083 
L 153.409155 208.898914 
L 148.578106 108.013633 
" style="fill: none; stroke: #b0b0b0; stroke-width: 0.8"/>
    <path d="M 306.866928 255.23905 
L 165.028723 197.896676 
L 160.889567 97.41028 
" style="fill: none; stroke: #b0b0b0; stroke-width: 0.8"/>
    <path d="M 317.434761 243.34612 
L 176.430281 187.100865 
L 172.957368 87.016781 
" style="fill: none; stroke: #b0b0b0; stroke-width: 0.8"/>
    <path d="M 327.796563 231.685056 
L 187.619908 176.505725 
L 184.788673 76.826966 
" style="fill: none; stroke: #b0b0b0; stroke-width: 0.8"/>
    <path d="M 337.958301 220.249141 
L 198.603459 166.105714 
L 196.390367 66.834906 
" style="fill: none; stroke: #b0b0b0; stroke-width: 0.8"/>
    <path d="M 347.925714 209.031918 
L 209.386574 155.895489 
L 207.769068 57.0349 
" style="fill: none; stroke: #b0b0b0; stroke-width: 0.8"/>
   </g>
  </g>
  <g id="grid3d_2">
   <g id="Line3DCollection_2">
    <path d="M 349.53029 99.330738 
L 343.759027 199.890244 
L 258.386552 294.828505 
" style="fill: none; stroke: #b0b0b0; stroke-width: 0.8"/>
    <path d="M 330.683923 92.788174 
L 325.931657 193.097042 
L 239.644621 286.874182 
" style="fill: none; stroke: #b0b0b0; stroke-width: 0.8"/>
    <path d="M 312.070472 86.326467 
L 308.313164 186.383434 
L 221.140138 279.020635 
" style="fill: none; stroke: #b0b0b0; stroke-width: 0.8"/>
    <path d="M 293.685647 79.944129 
L 290.899897 179.748028 
L 202.868617 271.26596 
" style="fill: none; stroke: #b0b0b0; stroke-width: 0.8"/>
    <path d="M 275.525261 73.639705 
L 273.688292 173.189466 
L 184.825688 263.608302 
" style="fill: none; stroke: #b0b0b0; stroke-width: 0.8"/>
    <path d="M 257.58523 67.411778 
L 256.674865 166.706421 
L 167.007086 256.045852 
" style="fill: none; stroke: #b0b0b0; stroke-width: 0.8"/>
    <path d="M 239.861567 61.258963 
L 239.856213 160.297596 
L 149.408655 248.576845 
" style="fill: none; stroke: #b0b0b0; stroke-width: 0.8"/>
    <path d="M 222.35038 55.17991 
L 223.22901 153.961723 
L 132.026338 241.19956 
" style="fill: none; stroke: #b0b0b0; stroke-width: 0.8"/>
   </g>
  </g>
  <g id="grid3d_3">
   <g id="Line3DCollection_3">
    <path d="M 123.072481 234.976376 
L 214.78248 148.331896 
L 353.094546 200.9212 
" style="fill: none; stroke: #b0b0b0; stroke-width: 0.8"/>
    <path d="M 121.849264 216.346917 
L 214.539958 130.233059 
L 354.248285 182.484596 
" style="fill: none; stroke: #b0b0b0; stroke-width: 0.8"/>
    <path d="M 120.600129 197.322727 
L 214.292679 111.779254 
L 355.425755 163.668776 
" style="fill: none; stroke: #b0b0b0; stroke-width: 0.8"/>
    <path d="M 119.324243 177.891126 
L 214.040503 92.959937 
L 356.627695 144.461921 
" style="fill: none; stroke: #b0b0b0; stroke-width: 0.8"/>
    <path d="M 118.020738 158.038886 
L 213.783282 73.764138 
L 357.854877 124.851712 
" style="fill: none; stroke: #b0b0b0; stroke-width: 0.8"/>
    <path d="M 116.688707 137.752199 
L 213.520864 54.180447 
L 359.108104 104.825308 
" style="fill: none; stroke: #b0b0b0; stroke-width: 0.8"/>
   </g>
  </g>
  <g id="axis3d_1">
   <g id="line2d_1">
    <path d="M 352.940131 203.388746 
L 268.045753 298.927998 
" style="fill: none; stroke: #000000; stroke-width: 0.8; stroke-linecap: square"/>
   </g>
   <g id="xtick_1">
    <g id="line2d_2">
     <path d="M 272.650096 291.868857 
L 276.294517 293.404479 
" style="fill: none; stroke: #000000; stroke-width: 0.8; stroke-linecap: square"/>
    </g>
    <g id="text_1">
     <!-- 0 -->
     <g transform="translate(283.110611 313.382881) scale(0.1 -0.1)">
      <defs>
       <path id="DejaVuSans-30" d="M 2034 4250 
Q 1547 4250 1301 3770 
Q 1056 3291 1056 2328 
Q 1056 1369 1301 889 
Q 1547 409 2034 409 
Q 2525 409 2770 889 
Q 3016 1369 3016 2328 
Q 3016 3291 2770 3770 
Q 2525 4250 2034 4250 
z
M 2034 4750 
Q 2819 4750 3233 4129 
Q 3647 3509 3647 2328 
Q 3647 1150 3233 529 
Q 2819 -91 2034 -91 
Q 1250 -91 836 529 
Q 422 1150 422 2328 
Q 422 3509 836 4129 
Q 1250 4750 2034 4750 
z
" transform="scale(0.015625)"/>
      </defs>
      <use xlink:href="#DejaVuSans-30"/>
     </g>
    </g>
   </g>
   <g id="xtick_2">
    <g id="line2d_3">
     <path d="M 283.882026 279.247596 
L 287.503166 280.752215 
" style="fill: none; stroke: #000000; stroke-width: 0.8; stroke-linecap: square"/>
    </g>
    <g id="text_2">
     <!-- 9 -->
     <g transform="translate(294.203785 300.621026) scale(0.1 -0.1)">
      <defs>
       <path id="DejaVuSans-39" d="M 703 97 
L 703 672 
Q 941 559 1184 500 
Q 1428 441 1663 441 
Q 2288 441 2617 861 
Q 2947 1281 2994 2138 
Q 2813 1869 2534 1725 
Q 2256 1581 1919 1581 
Q 1219 1581 811 2004 
Q 403 2428 403 3163 
Q 403 3881 828 4315 
Q 1253 4750 1959 4750 
Q 2769 4750 3195 4129 
Q 3622 3509 3622 2328 
Q 3622 1225 3098 567 
Q 2575 -91 1691 -91 
Q 1453 -91 1209 -44 
Q 966 3 703 97 
z
M 1959 2075 
Q 2384 2075 2632 2365 
Q 2881 2656 2881 3163 
Q 2881 3666 2632 3958 
Q 2384 4250 1959 4250 
Q 1534 4250 1286 3958 
Q 1038 3666 1038 3163 
Q 1038 2656 1286 2365 
Q 1534 2075 1959 2075 
z
" transform="scale(0.015625)"/>
      </defs>
      <use xlink:href="#DejaVuSans-39"/>
     </g>
    </g>
   </g>
   <g id="xtick_3">
    <g id="line2d_4">
     <path d="M 294.888472 266.87971 
L 298.486526 268.354257 
" style="fill: none; stroke: #000000; stroke-width: 0.8; stroke-linecap: square"/>
    </g>
    <g id="text_3">
     <!-- 18 -->
     <g transform="translate(301.893018 288.11536) scale(0.1 -0.1)">
      <defs>
       <path id="DejaVuSans-31" d="M 794 531 
L 1825 531 
L 1825 4091 
L 703 3866 
L 703 4441 
L 1819 4666 
L 2450 4666 
L 2450 531 
L 3481 531 
L 3481 0 
L 794 0 
L 794 531 
z
" transform="scale(0.015625)"/>
       <path id="DejaVuSans-38" d="M 2034 2216 
Q 1584 2216 1326 1975 
Q 1069 1734 1069 1313 
Q 1069 891 1326 650 
Q 1584 409 2034 409 
Q 2484 409 2743 651 
Q 3003 894 3003 1313 
Q 3003 1734 2745 1975 
Q 2488 2216 2034 2216 
z
M 1403 2484 
Q 997 2584 770 2862 
Q 544 3141 544 3541 
Q 544 4100 942 4425 
Q 1341 4750 2034 4750 
Q 2731 4750 3128 4425 
Q 3525 4100 3525 3541 
Q 3525 3141 3298 2862 
Q 3072 2584 2669 2484 
Q 3125 2378 3379 2068 
Q 3634 1759 3634 1313 
Q 3634 634 3220 271 
Q 2806 -91 2034 -91 
Q 1263 -91 848 271 
Q 434 634 434 1313 
Q 434 1759 690 2068 
Q 947 2378 1403 2484 
z
M 1172 3481 
Q 1172 3119 1398 2916 
Q 1625 2713 2034 2713 
Q 2441 2713 2670 2916 
Q 2900 3119 2900 3481 
Q 2900 3844 2670 4047 
Q 2441 4250 2034 4250 
Q 1625 4250 1398 4047 
Q 1172 3844 1172 3481 
z
" transform="scale(0.015625)"/>
      </defs>
      <use xlink:href="#DejaVuSans-31"/>
      <use xlink:href="#DejaVuSans-38" x="63.623047"/>
     </g>
    </g>
   </g>
   <g id="xtick_4">
    <g id="line2d_5">
     <path d="M 305.676157 254.757645 
L 309.251321 256.203013 
" style="fill: none; stroke: #000000; stroke-width: 0.8; stroke-linecap: square"/>
    </g>
    <g id="text_4">
     <!-- 27 -->
     <g transform="translate(312.547451 275.858243) scale(0.1 -0.1)">
      <defs>
       <path id="DejaVuSans-32" d="M 1228 531 
L 3431 531 
L 3431 0 
L 469 0 
L 469 531 
Q 828 903 1448 1529 
Q 2069 2156 2228 2338 
Q 2531 2678 2651 2914 
Q 2772 3150 2772 3378 
Q 2772 3750 2511 3984 
Q 2250 4219 1831 4219 
Q 1534 4219 1204 4116 
Q 875 4013 500 3803 
L 500 4441 
Q 881 4594 1212 4672 
Q 1544 4750 1819 4750 
Q 2544 4750 2975 4387 
Q 3406 4025 3406 3419 
Q 3406 3131 3298 2873 
Q 3191 2616 2906 2266 
Q 2828 2175 2409 1742 
Q 1991 1309 1228 531 
z
" transform="scale(0.015625)"/>
       <path id="DejaVuSans-37" d="M 525 4666 
L 3525 4666 
L 3525 4397 
L 1831 0 
L 1172 0 
L 2766 4134 
L 525 4134 
L 525 4666 
z
" transform="scale(0.015625)"/>
      </defs>
      <use xlink:href="#DejaVuSans-32"/>
      <use xlink:href="#DejaVuSans-37" x="63.623047"/>
     </g>
    </g>
   </g>
   <g id="xtick_5">
    <g id="line2d_6">
     <path d="M 316.251538 242.874144 
L 319.804013 244.291191 
" style="fill: none; stroke: #000000; stroke-width: 0.8; stroke-linecap: square"/>
    </g>
    <g id="text_5">
     <!-- 36 -->
     <g transform="translate(322.992211 263.84234) scale(0.1 -0.1)">
      <defs>
       <path id="DejaVuSans-33" d="M 2597 2516 
Q 3050 2419 3304 2112 
Q 3559 1806 3559 1356 
Q 3559 666 3084 287 
Q 2609 -91 1734 -91 
Q 1441 -91 1130 -33 
Q 819 25 488 141 
L 488 750 
Q 750 597 1062 519 
Q 1375 441 1716 441 
Q 2309 441 2620 675 
Q 2931 909 2931 1356 
Q 2931 1769 2642 2001 
Q 2353 2234 1838 2234 
L 1294 2234 
L 1294 2753 
L 1863 2753 
Q 2328 2753 2575 2939 
Q 2822 3125 2822 3475 
Q 2822 3834 2567 4026 
Q 2313 4219 1838 4219 
Q 1578 4219 1281 4162 
Q 984 4106 628 3988 
L 628 4550 
Q 988 4650 1302 4700 
Q 1616 4750 1894 4750 
Q 2613 4750 3031 4423 
Q 3450 4097 3450 3541 
Q 3450 3153 3228 2886 
Q 3006 2619 2597 2516 
z
" transform="scale(0.015625)"/>
       <path id="DejaVuSans-36" d="M 2113 2584 
Q 1688 2584 1439 2293 
Q 1191 2003 1191 1497 
Q 1191 994 1439 701 
Q 1688 409 2113 409 
Q 2538 409 2786 701 
Q 3034 994 3034 1497 
Q 3034 2003 2786 2293 
Q 2538 2584 2113 2584 
z
M 3366 4563 
L 3366 3988 
Q 3128 4100 2886 4159 
Q 2644 4219 2406 4219 
Q 1781 4219 1451 3797 
Q 1122 3375 1075 2522 
Q 1259 2794 1537 2939 
Q 1816 3084 2150 3084 
Q 2853 3084 3261 2657 
Q 3669 2231 3669 1497 
Q 3669 778 3244 343 
Q 2819 -91 2113 -91 
Q 1303 -91 875 529 
Q 447 1150 447 2328 
Q 447 3434 972 4092 
Q 1497 4750 2381 4750 
Q 2619 4750 2861 4703 
Q 3103 4656 3366 4563 
z
" transform="scale(0.015625)"/>
      </defs>
      <use xlink:href="#DejaVuSans-33"/>
      <use xlink:href="#DejaVuSans-36" x="63.623047"/>
     </g>
    </g>
   </g>
   <g id="xtick_6">
    <g id="line2d_7">
     <path d="M 326.620821 231.222235 
L 330.150807 232.611784 
" style="fill: none; stroke: #000000; stroke-width: 0.8; stroke-linecap: square"/>
    </g>
    <g id="text_6">
     <!-- 45 -->
     <g transform="translate(333.233426 252.060598) scale(0.1 -0.1)">
      <defs>
       <path id="DejaVuSans-34" d="M 2419 4116 
L 825 1625 
L 2419 1625 
L 2419 4116 
z
M 2253 4666 
L 3047 4666 
L 3047 1625 
L 3713 1625 
L 3713 1100 
L 3047 1100 
L 3047 0 
L 2419 0 
L 2419 1100 
L 313 1100 
L 313 1709 
L 2253 4666 
z
" transform="scale(0.015625)"/>
       <path id="DejaVuSans-35" d="M 691 4666 
L 3169 4666 
L 3169 4134 
L 1269 4134 
L 1269 2991 
Q 1406 3038 1543 3061 
Q 1681 3084 1819 3084 
Q 2600 3084 3056 2656 
Q 3513 2228 3513 1497 
Q 3513 744 3044 326 
Q 2575 -91 1722 -91 
Q 1428 -91 1123 -41 
Q 819 9 494 109 
L 494 744 
Q 775 591 1075 516 
Q 1375 441 1709 441 
Q 2250 441 2565 725 
Q 2881 1009 2881 1497 
Q 2881 1984 2565 2268 
Q 2250 2553 1709 2553 
Q 1456 2553 1204 2497 
Q 953 2441 691 2322 
L 691 4666 
z
" transform="scale(0.015625)"/>
      </defs>
      <use xlink:href="#DejaVuSans-34"/>
      <use xlink:href="#DejaVuSans-35" x="63.623047"/>
     </g>
    </g>
   </g>
   <g id="xtick_7">
    <g id="line2d_8">
     <path d="M 336.789973 219.795211 
L 340.297673 221.158055 
" style="fill: none; stroke: #000000; stroke-width: 0.8; stroke-linecap: square"/>
    </g>
    <g id="text_7">
     <!-- 54 -->
     <g transform="translate(343.27699 240.50624) scale(0.1 -0.1)">
      <use xlink:href="#DejaVuSans-35"/>
      <use xlink:href="#DejaVuSans-34" x="63.623047"/>
     </g>
    </g>
   </g>
   <g id="xtick_8">
    <g id="line2d_9">
     <path d="M 346.764733 208.586626 
L 350.250349 209.923527 
" style="fill: none; stroke: #000000; stroke-width: 0.8; stroke-linecap: square"/>
    </g>
    <g id="text_8">
     <!-- 63 -->
     <g transform="translate(353.128569 229.172746) scale(0.1 -0.1)">
      <use xlink:href="#DejaVuSans-36"/>
      <use xlink:href="#DejaVuSans-33" x="63.623047"/>
     </g>
    </g>
   </g>
   <g id="text_9">
    <!-- Output filter index [-] -->
    <g transform="translate(304.967266 318.985405) rotate(-48.376312) scale(0.1 -0.1)">
     <defs>
      <path id="DejaVuSans-4f" d="M 2522 4238 
Q 1834 4238 1429 3725 
Q 1025 3213 1025 2328 
Q 1025 1447 1429 934 
Q 1834 422 2522 422 
Q 3209 422 3611 934 
Q 4013 1447 4013 2328 
Q 4013 3213 3611 3725 
Q 3209 4238 2522 4238 
z
M 2522 4750 
Q 3503 4750 4090 4092 
Q 4678 3434 4678 2328 
Q 4678 1225 4090 567 
Q 3503 -91 2522 -91 
Q 1538 -91 948 565 
Q 359 1222 359 2328 
Q 359 3434 948 4092 
Q 1538 4750 2522 4750 
z
" transform="scale(0.015625)"/>
      <path id="DejaVuSans-75" d="M 544 1381 
L 544 3500 
L 1119 3500 
L 1119 1403 
Q 1119 906 1312 657 
Q 1506 409 1894 409 
Q 2359 409 2629 706 
Q 2900 1003 2900 1516 
L 2900 3500 
L 3475 3500 
L 3475 0 
L 2900 0 
L 2900 538 
Q 2691 219 2414 64 
Q 2138 -91 1772 -91 
Q 1169 -91 856 284 
Q 544 659 544 1381 
z
M 1991 3584 
L 1991 3584 
z
" transform="scale(0.015625)"/>
      <path id="DejaVuSans-74" d="M 1172 4494 
L 1172 3500 
L 2356 3500 
L 2356 3053 
L 1172 3053 
L 1172 1153 
Q 1172 725 1289 603 
Q 1406 481 1766 481 
L 2356 481 
L 2356 0 
L 1766 0 
Q 1100 0 847 248 
Q 594 497 594 1153 
L 594 3053 
L 172 3053 
L 172 3500 
L 594 3500 
L 594 4494 
L 1172 4494 
z
" transform="scale(0.015625)"/>
      <path id="DejaVuSans-70" d="M 1159 525 
L 1159 -1331 
L 581 -1331 
L 581 3500 
L 1159 3500 
L 1159 2969 
Q 1341 3281 1617 3432 
Q 1894 3584 2278 3584 
Q 2916 3584 3314 3078 
Q 3713 2572 3713 1747 
Q 3713 922 3314 415 
Q 2916 -91 2278 -91 
Q 1894 -91 1617 61 
Q 1341 213 1159 525 
z
M 3116 1747 
Q 3116 2381 2855 2742 
Q 2594 3103 2138 3103 
Q 1681 3103 1420 2742 
Q 1159 2381 1159 1747 
Q 1159 1113 1420 752 
Q 1681 391 2138 391 
Q 2594 391 2855 752 
Q 3116 1113 3116 1747 
z
" transform="scale(0.015625)"/>
      <path id="DejaVuSans-20" transform="scale(0.015625)"/>
      <path id="DejaVuSans-66" d="M 2375 4863 
L 2375 4384 
L 1825 4384 
Q 1516 4384 1395 4259 
Q 1275 4134 1275 3809 
L 1275 3500 
L 2222 3500 
L 2222 3053 
L 1275 3053 
L 1275 0 
L 697 0 
L 697 3053 
L 147 3053 
L 147 3500 
L 697 3500 
L 697 3744 
Q 697 4328 969 4595 
Q 1241 4863 1831 4863 
L 2375 4863 
z
" transform="scale(0.015625)"/>
      <path id="DejaVuSans-69" d="M 603 3500 
L 1178 3500 
L 1178 0 
L 603 0 
L 603 3500 
z
M 603 4863 
L 1178 4863 
L 1178 4134 
L 603 4134 
L 603 4863 
z
" transform="scale(0.015625)"/>
      <path id="DejaVuSans-6c" d="M 603 4863 
L 1178 4863 
L 1178 0 
L 603 0 
L 603 4863 
z
" transform="scale(0.015625)"/>
      <path id="DejaVuSans-65" d="M 3597 1894 
L 3597 1613 
L 953 1613 
Q 991 1019 1311 708 
Q 1631 397 2203 397 
Q 2534 397 2845 478 
Q 3156 559 3463 722 
L 3463 178 
Q 3153 47 2828 -22 
Q 2503 -91 2169 -91 
Q 1331 -91 842 396 
Q 353 884 353 1716 
Q 353 2575 817 3079 
Q 1281 3584 2069 3584 
Q 2775 3584 3186 3129 
Q 3597 2675 3597 1894 
z
M 3022 2063 
Q 3016 2534 2758 2815 
Q 2500 3097 2075 3097 
Q 1594 3097 1305 2825 
Q 1016 2553 972 2059 
L 3022 2063 
z
" transform="scale(0.015625)"/>
      <path id="DejaVuSans-72" d="M 2631 2963 
Q 2534 3019 2420 3045 
Q 2306 3072 2169 3072 
Q 1681 3072 1420 2755 
Q 1159 2438 1159 1844 
L 1159 0 
L 581 0 
L 581 3500 
L 1159 3500 
L 1159 2956 
Q 1341 3275 1631 3429 
Q 1922 3584 2338 3584 
Q 2397 3584 2469 3576 
Q 2541 3569 2628 3553 
L 2631 2963 
z
" transform="scale(0.015625)"/>
      <path id="DejaVuSans-6e" d="M 3513 2113 
L 3513 0 
L 2938 0 
L 2938 2094 
Q 2938 2591 2744 2837 
Q 2550 3084 2163 3084 
Q 1697 3084 1428 2787 
Q 1159 2491 1159 1978 
L 1159 0 
L 581 0 
L 581 3500 
L 1159 3500 
L 1159 2956 
Q 1366 3272 1645 3428 
Q 1925 3584 2291 3584 
Q 2894 3584 3203 3211 
Q 3513 2838 3513 2113 
z
" transform="scale(0.015625)"/>
      <path id="DejaVuSans-64" d="M 2906 2969 
L 2906 4863 
L 3481 4863 
L 3481 0 
L 2906 0 
L 2906 525 
Q 2725 213 2448 61 
Q 2172 -91 1784 -91 
Q 1150 -91 751 415 
Q 353 922 353 1747 
Q 353 2572 751 3078 
Q 1150 3584 1784 3584 
Q 2172 3584 2448 3432 
Q 2725 3281 2906 2969 
z
M 947 1747 
Q 947 1113 1208 752 
Q 1469 391 1925 391 
Q 2381 391 2643 752 
Q 2906 1113 2906 1747 
Q 2906 2381 2643 2742 
Q 2381 3103 1925 3103 
Q 1469 3103 1208 2742 
Q 947 2381 947 1747 
z
" transform="scale(0.015625)"/>
      <path id="DejaVuSans-78" d="M 3513 3500 
L 2247 1797 
L 3578 0 
L 2900 0 
L 1881 1375 
L 863 0 
L 184 0 
L 1544 1831 
L 300 3500 
L 978 3500 
L 1906 2253 
L 2834 3500 
L 3513 3500 
z
" transform="scale(0.015625)"/>
      <path id="DejaVuSans-5b" d="M 550 4863 
L 1875 4863 
L 1875 4416 
L 1125 4416 
L 1125 -397 
L 1875 -397 
L 1875 -844 
L 550 -844 
L 550 4863 
z
" transform="scale(0.015625)"/>
      <path id="DejaVuSans-2d" d="M 313 2009 
L 1997 2009 
L 1997 1497 
L 313 1497 
L 313 2009 
z
" transform="scale(0.015625)"/>
      <path id="DejaVuSans-5d" d="M 1947 4863 
L 1947 -844 
L 622 -844 
L 622 -397 
L 1369 -397 
L 1369 4416 
L 622 4416 
L 622 4863 
L 1947 4863 
z
" transform="scale(0.015625)"/>
     </defs>
     <use xlink:href="#DejaVuSans-4f"/>
     <use xlink:href="#DejaVuSans-75" x="78.710938"/>
     <use xlink:href="#DejaVuSans-74" x="142.089844"/>
     <use xlink:href="#DejaVuSans-70" x="181.298828"/>
     <use xlink:href="#DejaVuSans-75" x="244.775391"/>
     <use xlink:href="#DejaVuSans-74" x="308.154297"/>
     <use xlink:href="#DejaVuSans-20" x="347.363281"/>
     <use xlink:href="#DejaVuSans-66" x="379.150391"/>
     <use xlink:href="#DejaVuSans-69" x="414.355469"/>
     <use xlink:href="#DejaVuSans-6c" x="442.138672"/>
     <use xlink:href="#DejaVuSans-74" x="469.921875"/>
     <use xlink:href="#DejaVuSans-65" x="509.130859"/>
     <use xlink:href="#DejaVuSans-72" x="570.654297"/>
     <use xlink:href="#DejaVuSans-20" x="611.767578"/>
     <use xlink:href="#DejaVuSans-69" x="643.554688"/>
     <use xlink:href="#DejaVuSans-6e" x="671.337891"/>
     <use xlink:href="#DejaVuSans-64" x="734.716797"/>
     <use xlink:href="#DejaVuSans-65" x="798.193359"/>
     <use xlink:href="#DejaVuSans-78" x="857.966797"/>
     <use xlink:href="#DejaVuSans-20" x="917.146484"/>
     <use xlink:href="#DejaVuSans-5b" x="948.933594"/>
     <use xlink:href="#DejaVuSans-2d" x="987.947266"/>
     <use xlink:href="#DejaVuSans-5d" x="1024.03125"/>
    </g>
   </g>
  </g>
  <g id="axis3d_2">
   <g id="line2d_10">
    <path d="M 123.23614 237.468884 
L 268.045753 298.927998 
" style="fill: none; stroke: #000000; stroke-width: 0.8; stroke-linecap: square"/>
   </g>
   <g id="xtick_9">
    <g id="line2d_11">
     <path d="M 259.125291 294.006991 
L 256.906148 296.474785 
" style="fill: none; stroke: #000000; stroke-width: 0.8; stroke-linecap: square"/>
    </g>
    <g id="text_10">
     <!-- 0 -->
     <g transform="translate(246.797735 320.61563) scale(0.12 -0.12)">
      <use xlink:href="#DejaVuSans-30"/>
     </g>
    </g>
   </g>
   <g id="xtick_10">
    <g id="line2d_12">
     <path d="M 240.390916 286.063106 
L 238.149097 288.499525 
" style="fill: none; stroke: #000000; stroke-width: 0.8; stroke-linecap: square"/>
    </g>
    <g id="text_11">
     <!-- 1 -->
     <g transform="translate(228.066043 312.538092) scale(0.12 -0.12)">
      <use xlink:href="#DejaVuSans-31"/>
     </g>
    </g>
   </g>
   <g id="xtick_11">
    <g id="line2d_13">
     <path d="M 221.893737 278.219798 
L 219.629994 280.625437 
" style="fill: none; stroke: #000000; stroke-width: 0.8; stroke-linecap: square"/>
    </g>
    <g id="text_12">
     <!-- 2 -->
     <g transform="translate(209.572163 304.563105) scale(0.12 -0.12)">
      <use xlink:href="#DejaVuSans-32"/>
     </g>
    </g>
   </g>
   <g id="xtick_12">
    <g id="line2d_14">
     <path d="M 203.629279 270.475171 
L 201.34434 272.850609 
" style="fill: none; stroke: #000000; stroke-width: 0.8; stroke-linecap: square"/>
    </g>
    <g id="text_13">
     <!-- 3 -->
     <g transform="translate(191.311597 296.688728) scale(0.12 -0.12)">
      <use xlink:href="#DejaVuSans-33"/>
     </g>
    </g>
   </g>
   <g id="xtick_13">
    <g id="line2d_15">
     <path d="M 185.593177 262.827372 
L 183.287748 265.173176 
" style="fill: none; stroke: #000000; stroke-width: 0.8; stroke-linecap: square"/>
    </g>
    <g id="text_14">
     <!-- 4 -->
     <g transform="translate(173.279955 288.913069) scale(0.12 -0.12)">
      <use xlink:href="#DejaVuSans-34"/>
     </g>
    </g>
   </g>
   <g id="xtick_14">
    <g id="line2d_16">
     <path d="M 167.781175 255.274598 
L 165.455941 257.591318 
" style="fill: none; stroke: #000000; stroke-width: 0.8; stroke-linecap: square"/>
    </g>
    <g id="text_15">
     <!-- 5 -->
     <g transform="translate(155.472961 281.234283) scale(0.12 -0.12)">
      <use xlink:href="#DejaVuSans-35"/>
     </g>
    </g>
   </g>
   <g id="xtick_15">
    <g id="line2d_17">
     <path d="M 150.189122 247.815089 
L 147.844747 250.103262 
" style="fill: none; stroke: #000000; stroke-width: 0.8; stroke-linecap: square"/>
    </g>
    <g id="text_16">
     <!-- 6 -->
     <g transform="translate(137.886442 273.650571) scale(0.12 -0.12)">
      <use xlink:href="#DejaVuSans-36"/>
     </g>
    </g>
   </g>
   <g id="xtick_16">
    <g id="line2d_18">
     <path d="M 132.812969 240.447127 
L 130.450097 242.707278 
" style="fill: none; stroke: #000000; stroke-width: 0.8; stroke-linecap: square"/>
    </g>
    <g id="text_17">
     <!-- 7 -->
     <g transform="translate(120.516328 266.160178) scale(0.12 -0.12)">
      <use xlink:href="#DejaVuSans-37"/>
     </g>
    </g>
   </g>
   <g id="text_18">
    <!-- Time [s] -->
    <g transform="translate(157.173723 297.425203) rotate(-337.002991) scale(0.1 -0.1)">
     <defs>
      <path id="DejaVuSans-54" d="M -19 4666 
L 3928 4666 
L 3928 4134 
L 2272 4134 
L 2272 0 
L 1638 0 
L 1638 4134 
L -19 4134 
L -19 4666 
z
" transform="scale(0.015625)"/>
      <path id="DejaVuSans-6d" d="M 3328 2828 
Q 3544 3216 3844 3400 
Q 4144 3584 4550 3584 
Q 5097 3584 5394 3201 
Q 5691 2819 5691 2113 
L 5691 0 
L 5113 0 
L 5113 2094 
Q 5113 2597 4934 2840 
Q 4756 3084 4391 3084 
Q 3944 3084 3684 2787 
Q 3425 2491 3425 1978 
L 3425 0 
L 2847 0 
L 2847 2094 
Q 2847 2600 2669 2842 
Q 2491 3084 2119 3084 
Q 1678 3084 1418 2786 
Q 1159 2488 1159 1978 
L 1159 0 
L 581 0 
L 581 3500 
L 1159 3500 
L 1159 2956 
Q 1356 3278 1631 3431 
Q 1906 3584 2284 3584 
Q 2666 3584 2933 3390 
Q 3200 3197 3328 2828 
z
" transform="scale(0.015625)"/>
      <path id="DejaVuSans-73" d="M 2834 3397 
L 2834 2853 
Q 2591 2978 2328 3040 
Q 2066 3103 1784 3103 
Q 1356 3103 1142 2972 
Q 928 2841 928 2578 
Q 928 2378 1081 2264 
Q 1234 2150 1697 2047 
L 1894 2003 
Q 2506 1872 2764 1633 
Q 3022 1394 3022 966 
Q 3022 478 2636 193 
Q 2250 -91 1575 -91 
Q 1294 -91 989 -36 
Q 684 19 347 128 
L 347 722 
Q 666 556 975 473 
Q 1284 391 1588 391 
Q 1994 391 2212 530 
Q 2431 669 2431 922 
Q 2431 1156 2273 1281 
Q 2116 1406 1581 1522 
L 1381 1569 
Q 847 1681 609 1914 
Q 372 2147 372 2553 
Q 372 3047 722 3315 
Q 1072 3584 1716 3584 
Q 2034 3584 2315 3537 
Q 2597 3491 2834 3397 
z
" transform="scale(0.015625)"/>
     </defs>
     <use xlink:href="#DejaVuSans-54"/>
     <use xlink:href="#DejaVuSans-69" x="57.958984"/>
     <use xlink:href="#DejaVuSans-6d" x="85.742188"/>
     <use xlink:href="#DejaVuSans-65" x="183.154297"/>
     <use xlink:href="#DejaVuSans-20" x="244.677734"/>
     <use xlink:href="#DejaVuSans-5b" x="276.464844"/>
     <use xlink:href="#DejaVuSans-73" x="315.478516"/>
     <use xlink:href="#DejaVuSans-5d" x="367.578125"/>
    </g>
   </g>
  </g>
  <g id="axis3d_3">
   <g id="line2d_19">
    <path d="M 123.23614 237.468884 
L 116.547416 135.600346 
" style="fill: none; stroke: #000000; stroke-width: 0.8; stroke-linecap: square"/>
   </g>
   <g id="xtick_17">
    <g id="line2d_20">
     <path d="M 123.863388 234.229154 
L 121.487675 236.473647 
" style="fill: none; stroke: #000000; stroke-width: 0.8; stroke-linecap: square"/>
    </g>
    <g id="text_19">
     <!-- 0.0 -->
     <g transform="translate(95.423846 245.491) scale(0.1 -0.1)">
      <defs>
       <path id="DejaVuSans-2e" d="M 684 794 
L 1344 794 
L 1344 0 
L 684 0 
L 684 794 
z
" transform="scale(0.015625)"/>
      </defs>
      <use xlink:href="#DejaVuSans-30"/>
      <use xlink:href="#DejaVuSans-2e" x="63.623047"/>
      <use xlink:href="#DejaVuSans-30" x="95.410156"/>
     </g>
    </g>
   </g>
   <g id="xtick_18">
    <g id="line2d_21">
     <path d="M 122.649235 215.603707 
L 120.246265 217.836175 
" style="fill: none; stroke: #000000; stroke-width: 0.8; stroke-linecap: square"/>
    </g>
    <g id="text_20">
     <!-- 0.2 -->
     <g transform="translate(93.990594 226.845972) scale(0.1 -0.1)">
      <use xlink:href="#DejaVuSans-30"/>
      <use xlink:href="#DejaVuSans-2e" x="63.623047"/>
      <use xlink:href="#DejaVuSans-32" x="95.410156"/>
     </g>
    </g>
   </g>
   <g id="xtick_19">
    <g id="line2d_22">
     <path d="M 121.409372 196.583869 
L 118.978518 198.803295 
" style="fill: none; stroke: #000000; stroke-width: 0.8; stroke-linecap: square"/>
    </g>
    <g id="text_21">
     <!-- 0.4 -->
     <g transform="translate(92.526898 207.804894) scale(0.1 -0.1)">
      <use xlink:href="#DejaVuSans-30"/>
      <use xlink:href="#DejaVuSans-2e" x="63.623047"/>
      <use xlink:href="#DejaVuSans-34" x="95.410156"/>
     </g>
    </g>
   </g>
   <g id="xtick_20">
    <g id="line2d_23">
     <path d="M 120.142974 177.156978 
L 117.683586 179.362288 
" style="fill: none; stroke: #000000; stroke-width: 0.8; stroke-linecap: square"/>
    </g>
    <g id="text_22">
     <!-- 0.6 -->
     <g transform="translate(91.031777 188.35501) scale(0.1 -0.1)">
      <use xlink:href="#DejaVuSans-30"/>
      <use xlink:href="#DejaVuSans-2e" x="63.623047"/>
      <use xlink:href="#DejaVuSans-36" x="95.410156"/>
     </g>
    </g>
   </g>
   <g id="xtick_21">
    <g id="line2d_24">
     <path d="M 118.84918 157.309825 
L 116.360585 159.499885 
" style="fill: none; stroke: #000000; stroke-width: 0.8; stroke-linecap: square"/>
    </g>
    <g id="text_23">
     <!-- 0.8 -->
     <g transform="translate(89.504207 168.483012) scale(0.1 -0.1)">
      <use xlink:href="#DejaVuSans-30"/>
      <use xlink:href="#DejaVuSans-2e" x="63.623047"/>
      <use xlink:href="#DejaVuSans-38" x="95.410156"/>
     </g>
    </g>
   </g>
   <g id="xtick_22">
    <g id="line2d_25">
     <path d="M 117.527092 137.028625 
L 115.008594 139.202234 
" style="fill: none; stroke: #000000; stroke-width: 0.8; stroke-linecap: square"/>
    </g>
    <g id="text_24">
     <!-- 1.0 -->
     <g transform="translate(87.943122 148.175009) scale(0.1 -0.1)">
      <use xlink:href="#DejaVuSans-31"/>
      <use xlink:href="#DejaVuSans-2e" x="63.623047"/>
      <use xlink:href="#DejaVuSans-30" x="95.410156"/>
     </g>
    </g>
   </g>
   <g id="text_25">
    <!-- Normalized Amplitude -->
    <g transform="translate(69.487971 138.957391) rotate(-273.756669) scale(0.1 -0.1)">
     <defs>
      <path id="DejaVuSans-4e" d="M 628 4666 
L 1478 4666 
L 3547 763 
L 3547 4666 
L 4159 4666 
L 4159 0 
L 3309 0 
L 1241 3903 
L 1241 0 
L 628 0 
L 628 4666 
z
" transform="scale(0.015625)"/>
      <path id="DejaVuSans-6f" d="M 1959 3097 
Q 1497 3097 1228 2736 
Q 959 2375 959 1747 
Q 959 1119 1226 758 
Q 1494 397 1959 397 
Q 2419 397 2687 759 
Q 2956 1122 2956 1747 
Q 2956 2369 2687 2733 
Q 2419 3097 1959 3097 
z
M 1959 3584 
Q 2709 3584 3137 3096 
Q 3566 2609 3566 1747 
Q 3566 888 3137 398 
Q 2709 -91 1959 -91 
Q 1206 -91 779 398 
Q 353 888 353 1747 
Q 353 2609 779 3096 
Q 1206 3584 1959 3584 
z
" transform="scale(0.015625)"/>
      <path id="DejaVuSans-61" d="M 2194 1759 
Q 1497 1759 1228 1600 
Q 959 1441 959 1056 
Q 959 750 1161 570 
Q 1363 391 1709 391 
Q 2188 391 2477 730 
Q 2766 1069 2766 1631 
L 2766 1759 
L 2194 1759 
z
M 3341 1997 
L 3341 0 
L 2766 0 
L 2766 531 
Q 2569 213 2275 61 
Q 1981 -91 1556 -91 
Q 1019 -91 701 211 
Q 384 513 384 1019 
Q 384 1609 779 1909 
Q 1175 2209 1959 2209 
L 2766 2209 
L 2766 2266 
Q 2766 2663 2505 2880 
Q 2244 3097 1772 3097 
Q 1472 3097 1187 3025 
Q 903 2953 641 2809 
L 641 3341 
Q 956 3463 1253 3523 
Q 1550 3584 1831 3584 
Q 2591 3584 2966 3190 
Q 3341 2797 3341 1997 
z
" transform="scale(0.015625)"/>
      <path id="DejaVuSans-7a" d="M 353 3500 
L 3084 3500 
L 3084 2975 
L 922 459 
L 3084 459 
L 3084 0 
L 275 0 
L 275 525 
L 2438 3041 
L 353 3041 
L 353 3500 
z
" transform="scale(0.015625)"/>
      <path id="DejaVuSans-41" d="M 2188 4044 
L 1331 1722 
L 3047 1722 
L 2188 4044 
z
M 1831 4666 
L 2547 4666 
L 4325 0 
L 3669 0 
L 3244 1197 
L 1141 1197 
L 716 0 
L 50 0 
L 1831 4666 
z
" transform="scale(0.015625)"/>
     </defs>
     <use xlink:href="#DejaVuSans-4e"/>
     <use xlink:href="#DejaVuSans-6f" x="74.804688"/>
     <use xlink:href="#DejaVuSans-72" x="135.986328"/>
     <use xlink:href="#DejaVuSans-6d" x="175.349609"/>
     <use xlink:href="#DejaVuSans-61" x="272.761719"/>
     <use xlink:href="#DejaVuSans-6c" x="334.041016"/>
     <use xlink:href="#DejaVuSans-69" x="361.824219"/>
     <use xlink:href="#DejaVuSans-7a" x="389.607422"/>
     <use xlink:href="#DejaVuSans-65" x="442.097656"/>
     <use xlink:href="#DejaVuSans-64" x="503.621094"/>
     <use xlink:href="#DejaVuSans-20" x="567.097656"/>
     <use xlink:href="#DejaVuSans-41" x="598.884766"/>
     <use xlink:href="#DejaVuSans-6d" x="667.292969"/>
     <use xlink:href="#DejaVuSans-70" x="764.705078"/>
     <use xlink:href="#DejaVuSans-6c" x="828.181641"/>
     <use xlink:href="#DejaVuSans-69" x="855.964844"/>
     <use xlink:href="#DejaVuSans-74" x="883.748047"/>
     <use xlink:href="#DejaVuSans-75" x="922.957031"/>
     <use xlink:href="#DejaVuSans-64" x="986.335938"/>
     <use xlink:href="#DejaVuSans-65" x="1049.8125"/>
    </g>
   </g>
  </g>
  <g id="axes_1">
   <g id="Line3DCollection_4">
    <path d="M 264.269999 285.937024 
L 265.539276 284.37878 
L 266.808345 282.667252 
L 268.066707 281.465374 
L 269.323741 280.160694 
L 270.576492 278.932668 
L 271.825581 277.739816 
L 273.087181 275.736645 
L 274.330826 274.540967 
L 275.572066 273.316094 
L 276.809609 272.126321 
L 278.044915 270.902779 
L 279.294403 268.925352 
L 280.519548 267.90988 
L 281.753256 266.406667 
L 282.978844 265.131158 
L 284.212057 263.446265 
L 285.53852 258.104236 
L 286.849136 253.456616 
L 288.07654 251.905609 
L 289.325518 249.503197 
L 290.537808 248.33269 
L 291.719301 248.110818 
L 292.923453 247.000753 
L 294.119376 246.063826 
L 295.33657 244.351493 
L 296.526176 243.433982 
L 297.735044 241.833641 
L 298.940999 240.254745 
L 300.125847 239.230752 
L 301.30976 238.149629 
L 302.511368 236.487832 
L 303.706835 234.939312 
L 304.880648 233.921923 
L 306.068089 232.461954 
L 307.242349 231.289432 
L 308.429063 229.725202 
L 309.626289 227.838176 
L 311.266994 214.762057 
L 313.369757 190.557086 
L 314.734098 184.982253 
L 316.362224 173.143021 
L 317.979332 161.814195 
L 319.438373 154.400618 
L 320.860782 147.944113 
L 322.418234 138.513178 
L 324.059483 127.374736 
L 323.070252 174.463158 
L 322.108529 219.622226 
L 323.18146 219.814141 
L 324.287037 219.227158 
L 325.427636 217.841278 
L 326.557856 216.625554 
L 327.695117 215.218051 
L 328.806403 214.292467 
L 329.927135 213.125317 
L 331.044455 211.978825 
L 332.151165 210.992831 
L 333.282346 209.486054 
L 334.40151 208.171484 
L 335.50404 207.130081 
L 336.622353 205.748694 
L 337.725779 204.604264 
L 338.847233 203.088619 
" clip-path="url(#pb7ae538420)" style="fill: none; stroke: #ff0000; stroke-width: 2"/>
    <path d="M 245.562145 278.069489 
L 246.842839 276.529318 
L 248.121622 274.836093 
L 249.395175 273.651528 
L 250.666238 272.364295 
L 251.933799 271.153518 
L 253.198029 269.977795 
L 254.465987 267.993211 
L 255.724652 266.814561 
L 256.980549 265.606716 
L 258.233078 264.433851 
L 259.482958 263.227226 
L 260.738891 261.268094 
L 261.980751 260.269041 
L 263.225905 258.783123 
L 264.46533 257.524423 
L 265.707966 255.857075 
L 267.004816 250.539667 
L 268.29326 245.915396 
L 269.531476 244.381584 
L 270.782176 241.998029 
L 272.00925 240.843861 
L 273.215543 240.636366 
L 274.435013 239.542412 
L 275.648041 238.621195 
L 276.874087 236.926091 
L 278.080907 236.02415 
L 279.299731 234.440717 
L 280.515832 232.87864 
L 281.716631 231.870283 
L 282.915846 230.804865 
L 284.126608 229.159916 
L 285.332381 227.627969 
L 286.522034 226.626008 
L 287.72063 225.182337 
L 288.909015 224.025469 
L 290.105715 222.477663 
L 291.309518 220.607695 
L 292.840033 207.572577 
L 294.716747 183.435277 
L 296.049514 177.886401 
L 297.580903 166.088476 
L 299.106739 154.80047 
L 300.515347 147.418317 
L 301.897338 140.990993 
L 303.383574 131.597325 
L 304.936018 120.501281 
L 304.460885 167.480632 
L 303.991736 212.549961 
L 305.092216 212.753996 
L 306.217247 212.180729 
L 307.369024 210.810202 
L 308.512134 209.60943 
L 309.660276 208.217242 
L 310.78735 207.30591 
L 311.921348 206.15348 
L 313.052104 205.021622 
L 314.173851 204.049876 
L 315.314702 202.558419 
L 316.445466 201.258716 
L 317.562344 200.231554 
L 318.691498 198.865097 
L 319.808141 197.735047 
L 320.938998 196.234542 
" clip-path="url(#pb7ae538420)" style="fill: none; stroke: #ff0000; stroke-width: 2"/>
    <path d="M 227.090409 270.301252 
L 228.382131 268.778824 
L 229.670282 267.103578 
L 230.958546 265.935987 
L 232.243188 264.665866 
L 233.52509 263.472004 
L 234.803983 262.313075 
L 236.07804 260.346771 
L 237.351254 259.184817 
L 238.621345 257.993672 
L 239.888391 256.837386 
L 241.152386 255.647353 
L 242.414507 253.706216 
L 243.672573 252.723252 
L 244.928793 251.254317 
L 246.181619 250.012107 
L 247.433348 248.362001 
L 248.701215 243.069017 
L 249.967937 238.467874 
L 251.216602 236.950951 
L 252.468885 234.585971 
L 253.710285 233.447829 
L 254.940674 233.254373 
L 256.174995 232.176217 
L 257.404613 231.270396 
L 258.639201 229.592226 
L 259.862722 228.705542 
L 261.091166 227.138723 
L 262.317073 225.593172 
L 263.533345 224.600147 
L 264.747399 223.550129 
L 265.966999 221.921744 
L 267.182738 220.406081 
L 268.387758 219.419248 
L 269.597148 217.991586 
L 270.799227 216.850079 
L 272.005581 215.318414 
L 273.215715 213.465229 
L 274.638599 200.471089 
L 276.294651 176.401631 
L 277.596521 170.878501 
L 279.033442 159.121773 
L 280.470151 147.874452 
L 281.829471 140.52352 
L 283.171943 134.125156 
L 284.588626 124.768566 
L 286.054367 113.714741 
L 286.080619 160.584067 
L 286.09218 205.562498 
L 287.219475 205.77835 
L 288.363417 205.218514 
L 289.526024 203.863073 
L 290.681638 202.676984 
L 291.84032 201.299849 
L 292.982729 200.402494 
L 294.129599 199.264518 
L 295.273394 198.147028 
L 296.409744 197.189264 
L 297.559958 195.712869 
L 298.701969 194.427775 
L 299.832779 193.414591 
L 300.972441 192.062809 
L 302.101913 190.946879 
L 303.241874 189.461264 
" clip-path="url(#pb7ae538420)" style="fill: none; stroke: #ff0000; stroke-width: 2"/>
    <path d="M 208.850348 262.630446 
L 210.152722 261.125438 
L 211.449908 259.467855 
L 212.752416 258.316906 
L 214.050199 257.063572 
L 215.345985 255.886298 
L 216.63908 254.743837 
L 217.918987 252.795514 
L 219.20629 251.649934 
L 220.490127 250.475167 
L 221.771233 249.335141 
L 223.0489 248.161383 
L 224.316959 246.237946 
L 225.590736 245.27075 
L 226.857655 243.818493 
L 228.123457 242.592465 
L 229.383962 240.959302 
L 230.623461 235.690546 
L 231.868896 231.112314 
L 233.127659 229.611982 
L 234.381391 227.265301 
L 235.636671 226.142879 
L 236.890475 225.963132 
L 238.139189 224.900472 
L 239.384902 224.009738 
L 240.627731 222.348217 
L 241.867454 221.476484 
L 243.105193 219.925992 
L 244.340577 218.396681 
L 245.571854 217.418689 
L 246.800297 216.383778 
L 248.028432 214.771675 
L 249.253806 213.272014 
L 250.473731 212.300017 
L 251.693567 210.888083 
L 252.908921 209.76165 
L 254.124609 208.24585 
L 255.340831 206.40918 
L 256.658576 193.455987 
L 258.09921 169.454523 
L 259.370838 163.956926 
L 260.7155 152.241281 
L 262.065169 141.034507 
L 263.376314 133.714593 
L 264.680143 127.344969 
L 266.028888 118.025266 
L 267.409973 107.013476 
L 267.925249 153.771887 
L 268.405978 198.658323 
L 269.559373 198.885697 
L 270.721698 198.339014 
L 271.894799 196.998399 
L 273.062539 195.82673 
L 274.231432 194.464388 
L 275.388735 193.580746 
L 276.548094 192.456963 
L 277.704543 191.353582 
L 278.855074 190.409537 
L 280.014352 188.947954 
L 281.167267 187.677217 
L 282.311605 186.677753 
L 283.461451 185.340396 
L 284.603374 184.238335 
L 285.752149 182.767365 
" clip-path="url(#pb7ae538420)" style="fill: none; stroke: #ff0000; stroke-width: 2"/>
    <path d="M 190.837631 255.055248 
L 192.150292 253.567347 
L 193.456188 251.927117 
L 194.772488 250.792489 
L 196.082988 249.555624 
L 197.392217 248.39462 
L 198.699064 247.26831 
L 199.984579 245.337673 
L 201.285527 244.208152 
L 202.582675 243.049452 
L 203.877399 241.925373 
L 205.168305 240.76758 
L 206.442061 238.861556 
L 207.731069 237.909817 
L 209.00833 236.473939 
L 210.286698 235.26379 
L 211.55567 233.647281 
L 212.767398 228.402558 
L 213.991971 223.847024 
L 215.260491 222.36299 
L 216.515543 220.03434 
L 217.784271 218.927339 
L 219.060827 218.760982 
L 220.323492 217.713519 
L 221.584817 216.837574 
L 222.835595 215.192422 
L 224.091037 214.335343 
L 225.337755 212.800898 
L 226.582294 211.287548 
L 227.828126 210.324299 
L 229.070521 209.304206 
L 230.306895 207.708111 
L 231.541583 206.224178 
L 232.775966 205.266731 
L 234.005909 203.870251 
L 235.234131 202.758613 
L 236.45884 201.258408 
L 237.680918 199.437991 
L 238.895948 186.525705 
L 240.126263 162.592366 
L 241.368292 157.120092 
L 242.622844 145.445409 
L 243.887502 134.279041 
L 245.151556 126.989941 
L 246.417592 120.648838 
L 247.699972 111.36583 
L 248.998391 100.395891 
L 249.990673 147.042553 
L 250.929339 191.835954 
L 252.108138 192.074564 
L 253.288333 191.540762 
L 254.471599 190.214719 
L 255.6511 189.057213 
L 256.829885 187.709413 
L 258.001652 186.839223 
L 259.173128 185.72938 
L 260.341855 184.639854 
L 261.506158 183.709275 
L 262.674209 182.262259 
L 263.837697 181.005631 
L 264.995169 180.019637 
L 266.154884 178.696462 
L 267.308893 177.608021 
L 268.466198 176.151457 
" clip-path="url(#pb7ae538420)" style="fill: none; stroke: #ff0000; stroke-width: 2"/>
    <path d="M 173.048033 247.573883 
L 174.370628 246.10278 
L 175.684921 244.479604 
L 177.014572 243.360983 
L 178.337378 242.140276 
L 179.659622 240.995232 
L 180.979785 239.884762 
L 182.270673 237.971526 
L 183.584835 236.857757 
L 184.894871 235.714818 
L 186.202785 234.606383 
L 187.506511 233.464253 
L 188.78573 231.575362 
L 190.089503 230.638775 
L 191.37676 229.218987 
L 192.667293 228.024421 
L 193.944433 226.424283 
L 195.128973 221.2034 
L 196.333099 216.670352 
L 197.611046 215.202332 
L 198.867292 212.891448 
L 200.149049 211.799577 
L 201.447712 211.646298 
L 202.723899 210.613744 
L 204.000366 209.752295 
L 205.258811 208.123238 
L 206.529502 207.280525 
L 207.784892 205.761853 
L 209.038277 204.264191 
L 210.298223 203.315402 
L 211.554146 202.309846 
L 212.798473 200.729492 
L 214.042163 199.261018 
L 215.290571 198.317843 
L 216.53029 196.936549 
L 217.770986 195.839434 
L 219.004415 194.354559 
L 220.232122 192.550139 
L 221.346796 179.678712 
L 222.371757 155.813609 
L 223.584809 150.366452 
L 224.751342 138.732606 
L 225.932965 127.606497 
L 227.150982 120.34801 
L 228.380055 114.03521 
L 229.597601 104.788705 
L 230.815288 93.860426 
L 232.272888 140.394562 
L 233.658559 185.093948 
L 234.862086 185.343513 
L 236.059652 184.822329 
L 237.252764 183.510608 
L 238.443672 182.367015 
L 239.632036 181.03351 
L 240.817852 180.17652 
L 242.001084 179.080368 
L 243.181725 178.00445 
L 244.359401 177.087086 
L 245.535942 175.654399 
L 246.709678 174.411639 
L 247.879904 173.438871 
L 249.049182 172.129638 
L 250.21492 171.054578 
L 251.380482 169.612185 
" clip-path="url(#pb7ae538420)" style="fill: none; stroke: #ff0000; stroke-width: 2"/>
    <path d="M 155.477436 240.184618 
L 156.809621 238.730014 
L 158.132006 237.123597 
L 159.474583 236.020676 
L 160.809294 234.815826 
L 162.144136 233.686438 
L 163.477193 232.591507 
L 164.773228 230.695392 
L 166.100185 229.597075 
L 167.4227 228.469601 
L 168.743386 227.376513 
L 170.059526 226.249752 
L 171.343981 224.377719 
L 172.662066 223.455987 
L 173.958983 222.052005 
L 175.261293 220.872736 
L 176.546312 219.288691 
L 177.704231 214.091458 
L 178.888315 209.580686 
L 180.175367 208.128402 
L 181.432687 205.835026 
L 182.727065 204.758001 
L 184.04721 204.617498 
L 185.336502 203.59957 
L 186.627656 202.752333 
L 187.893493 201.139104 
L 189.178976 200.310473 
L 190.442741 198.807308 
L 191.704671 197.325068 
L 192.978304 196.390461 
L 194.247343 195.399169 
L 195.499344 193.834295 
L 196.751734 192.381017 
L 198.013745 191.451843 
L 199.26292 190.085472 
L 200.515707 189.002614 
L 201.757562 187.532813 
L 202.990678 185.744139 
L 204.007296 172.913517 
L 204.831732 149.116742 
L 206.016415 143.694496 
L 207.096965 132.101359 
L 208.197474 121.015359 
L 209.370481 113.787282 
L 210.563398 107.50257 
L 211.717598 98.292373 
L 212.856437 87.405563 
L 214.767986 133.826448 
L 216.590022 178.430891 
L 217.81762 178.69114 
L 219.032072 178.182316 
L 220.234721 176.884675 
L 221.43669 175.754749 
L 222.634331 174.4353 
L 223.83379 173.591262 
L 225.028427 172.508559 
L 226.220627 171.446007 
L 227.411289 170.541616 
L 228.596046 169.123023 
L 229.779716 167.893895 
L 230.962324 166.934114 
L 232.140868 165.638591 
L 233.317988 164.576676 
L 234.49154 163.148226 
" clip-path="url(#pb7ae538420)" style="fill: none; stroke: #ff0000; stroke-width: 2"/>
    <path d="M 138.121818 232.885762 
L 139.463262 231.447366 
L 140.793443 229.85742 
L 142.148533 228.7699 
L 143.494762 227.580613 
L 144.841798 226.466586 
L 146.187339 225.386899 
L 147.4883 223.507631 
L 148.827645 222.424474 
L 150.16224 221.312175 
L 151.495295 220.234145 
L 152.823454 219.122466 
L 154.112927 217.267022 
L 155.444884 216.359856 
L 156.751135 214.971403 
L 158.064846 213.80715 
L 159.357461 212.238928 
L 160.489313 207.065155 
L 161.653748 202.576454 
L 162.949595 201.139635 
L 164.207871 198.863514 
L 165.514476 197.801058 
L 166.855495 197.673036 
L 168.157486 196.669458 
L 169.462885 195.836155 
L 170.735847 194.238493 
L 172.035679 193.423669 
L 173.30753 191.93575 
L 174.577712 190.468671 
L 175.864618 189.547978 
L 177.146373 188.570682 
L 178.405779 187.021032 
L 179.666574 185.582695 
L 180.941778 184.667256 
L 182.2001 183.315554 
L 183.464606 182.246692 
L 184.714602 180.791713 
L 185.952913 179.01854 
L 186.873712 166.228662 
L 187.502325 142.500291 
L 188.659231 137.102752 
L 189.655779 125.550189 
L 190.677045 114.504146 
L 191.806042 107.306278 
L 192.963588 101.049439 
L 194.055892 91.875354 
L 195.117714 81.02982 
L 197.472154 127.33678 
L 199.720197 171.845405 
L 200.971226 172.116073 
L 202.202093 171.619358 
L 203.413977 170.335559 
L 204.626671 169.219063 
L 205.833296 167.913433 
L 207.046004 167.082106 
L 208.251704 166.012616 
L 209.455119 164.963194 
L 210.65839 164.071539 
L 211.851097 162.666811 
L 213.044396 161.451085 
L 214.239025 160.504056 
L 215.426544 159.222017 
L 216.61471 158.173017 
L 217.795993 156.758285 
" clip-path="url(#pb7ae538420)" style="fill: none; stroke: #ff0000; stroke-width: 2"/>
   </g>
  </g>
 </g>
 <defs>
  <clipPath id="pb7ae538420">
   <rect x="103.104" y="41.472" width="266.112" height="266.112"/>
  </clipPath>
 </defs>
</svg>
