<?xml version="1.0" encoding="utf-8" standalone="no"?>
<!DOCTYPE svg PUBLIC "-//W3C//DTD SVG 1.1//EN"
  "http://www.w3.org/Graphics/SVG/1.1/DTD/svg11.dtd">
<svg xmlns:xlink="http://www.w3.org/1999/xlink" width="460.8pt" height="345.6pt" viewBox="0 0 460.8 345.6" xmlns="http://www.w3.org/2000/svg" version="1.1">
 <metadata>
  <rdf:RDF xmlns:dc="http://purl.org/dc/elements/1.1/" xmlns:cc="http://creativecommons.org/ns#" xmlns:rdf="http://www.w3.org/1999/02/22-rdf-syntax-ns#">
   <cc:Work>
    <dc:type rdf:resource="http://purl.org/dc/dcmitype/StillImage"/>
    <dc:date>2024-05-14T15:00:34.074071</dc:date>
    <dc:format>image/svg+xml</dc:format>
    <dc:creator>
     <cc:Agent>
      <dc:title>Matplotlib v3.8.2, https://matplotlib.org/</dc:title>
     </cc:Agent>
    </dc:creator>
   </cc:Work>
  </rdf:RDF>
 </metadata>
 <defs>
  <style type="text/css">*{stroke-linejoin: round; stroke-linecap: butt}</style>
 </defs>
 <g id="figure_1">
  <g id="patch_1">
   <path d="M 0 345.6 
L 460.8 345.6 
L 460.8 0 
L 0 0 
L 0 345.6 
z
" style="fill: none"/>
  </g>
  <g id="axes_1">
   <g id="patch_2">
    <path d="M 57.6 307.584 
L 414.72 307.584 
L 414.72 41.472 
L 57.6 41.472 
L 57.6 307.584 
z
" style="fill: none"/>
   </g>
   <g id="matplotlib.axis_1">
    <g id="xtick_1">
     <g id="line2d_1">
      <path d="M 57.6 307.584 
L 57.6 41.472 
" clip-path="url(#pf145561ccb)" style="fill: none; stroke-dasharray: 2.22,0.96; stroke-dashoffset: 0; stroke: #b2b2b2; stroke-width: 0.6"/>
     </g>
     <g id="line2d_2">
      <defs>
       <path id="m9e0f76f84a" d="M 0 0 
L 0 -3.5 
" style="stroke: #000000; stroke-width: 0.6"/>
      </defs>
      <g>
       <use xlink:href="#m9e0f76f84a" x="57.6" y="307.584" style="stroke: #000000; stroke-width: 0.6"/>
      </g>
     </g>
     <g id="line2d_3">
      <defs>
       <path id="me2776d881e" d="M 0 0 
L 0 3.5 
" style="stroke: #000000; stroke-width: 0.6"/>
      </defs>
      <g>
       <use xlink:href="#me2776d881e" x="57.6" y="41.472" style="stroke: #000000; stroke-width: 0.6"/>
      </g>
     </g>
     <g id="text_1">
      <!-- $\mathdefault{0}$ -->
      <g transform="translate(54.088213 321.046625) scale(0.144 -0.144)">
       <defs>
        <path id="CMR17-30" d="M 2688 2025 
C 2688 2416 2682 3080 2413 3591 
C 2176 4039 1798 4198 1466 4198 
C 1158 4198 768 4058 525 3597 
C 269 3118 243 2524 243 2025 
C 243 1661 250 1106 448 619 
C 723 -39 1216 -128 1466 -128 
C 1760 -128 2208 -7 2470 600 
C 2662 1042 2688 1559 2688 2025 
z
M 1466 -26 
C 1056 -26 813 325 723 812 
C 653 1188 653 1738 653 2096 
C 653 2588 653 2997 736 3387 
C 858 3929 1216 4096 1466 4096 
C 1728 4096 2067 3923 2189 3400 
C 2272 3036 2278 2607 2278 2096 
C 2278 1680 2278 1169 2202 792 
C 2067 95 1690 -26 1466 -26 
z
" transform="scale(0.015625)"/>
       </defs>
       <use xlink:href="#CMR17-30" transform="scale(0.996264)"/>
      </g>
     </g>
    </g>
    <g id="xtick_2">
     <g id="line2d_4">
      <path d="M 108.617143 307.584 
L 108.617143 41.472 
" clip-path="url(#pf145561ccb)" style="fill: none; stroke-dasharray: 2.22,0.96; stroke-dashoffset: 0; stroke: #b2b2b2; stroke-width: 0.6"/>
     </g>
     <g id="line2d_5">
      <g>
       <use xlink:href="#m9e0f76f84a" x="108.617143" y="307.584" style="stroke: #000000; stroke-width: 0.6"/>
      </g>
     </g>
     <g id="line2d_6">
      <g>
       <use xlink:href="#me2776d881e" x="108.617143" y="41.472" style="stroke: #000000; stroke-width: 0.6"/>
      </g>
     </g>
     <g id="text_2">
      <!-- $\mathdefault{9}$ -->
      <g transform="translate(105.105356 321.046625) scale(0.144 -0.144)">
       <defs>
        <path id="CMR17-39" d="M 2253 1864 
C 2253 464 1670 31 1190 31 
C 1043 31 685 31 538 294 
C 704 268 826 357 826 518 
C 826 692 685 749 595 749 
C 538 749 365 723 365 506 
C 365 71 742 -128 1203 -128 
C 1939 -128 2688 674 2688 2073 
C 2688 3817 1971 4179 1485 4179 
C 851 4179 243 3628 243 2778 
C 243 1991 762 1408 1414 1408 
C 1952 1408 2189 1903 2253 2112 
L 2253 1864 
z
M 1427 1510 
C 1254 1510 1011 1542 813 1922 
C 678 2169 678 2461 678 2771 
C 678 3146 678 3405 858 3684 
C 947 3817 1114 4032 1485 4032 
C 2240 4032 2240 2885 2240 2632 
C 2240 2182 2035 1510 1427 1510 
z
" transform="scale(0.015625)"/>
       </defs>
       <use xlink:href="#CMR17-39" transform="scale(0.996264)"/>
      </g>
     </g>
    </g>
    <g id="xtick_3">
     <g id="line2d_7">
      <path d="M 159.634286 307.584 
L 159.634286 41.472 
" clip-path="url(#pf145561ccb)" style="fill: none; stroke-dasharray: 2.22,0.96; stroke-dashoffset: 0; stroke: #b2b2b2; stroke-width: 0.6"/>
     </g>
     <g id="line2d_8">
      <g>
       <use xlink:href="#m9e0f76f84a" x="159.634286" y="307.584" style="stroke: #000000; stroke-width: 0.6"/>
      </g>
     </g>
     <g id="line2d_9">
      <g>
       <use xlink:href="#me2776d881e" x="159.634286" y="41.472" style="stroke: #000000; stroke-width: 0.6"/>
      </g>
     </g>
     <g id="text_3">
      <!-- $\mathdefault{18}$ -->
      <g transform="translate(152.610713 321.046625) scale(0.144 -0.144)">
       <defs>
        <path id="CMR17-31" d="M 1702 4058 
C 1702 4192 1696 4192 1606 4192 
C 1357 3916 979 3827 621 3827 
C 602 3827 570 3827 563 3808 
C 557 3795 557 3782 557 3648 
C 755 3648 1088 3686 1344 3839 
L 1344 461 
C 1344 236 1331 160 781 160 
L 589 160 
L 589 0 
C 896 0 1216 0 1523 0 
C 1830 0 2150 0 2458 0 
L 2458 160 
L 2266 160 
C 1715 160 1702 230 1702 458 
L 1702 4058 
z
" transform="scale(0.015625)"/>
        <path id="CMR17-38" d="M 1741 2264 
C 2144 2467 2554 2773 2554 3263 
C 2554 3841 1990 4179 1472 4179 
C 890 4179 378 3759 378 3180 
C 378 3021 416 2747 666 2505 
C 730 2442 998 2251 1171 2130 
C 883 1983 211 1634 211 934 
C 211 279 838 -128 1459 -128 
C 2144 -128 2720 362 2720 1010 
C 2720 1590 2330 1857 2074 2029 
L 1741 2264 
z
M 902 2822 
C 851 2854 595 3051 595 3351 
C 595 3739 998 4032 1459 4032 
C 1965 4032 2336 3676 2336 3262 
C 2336 2669 1670 2331 1638 2331 
C 1632 2331 1626 2331 1574 2370 
L 902 2822 
z
M 2080 1519 
C 2176 1449 2483 1240 2483 851 
C 2483 381 2010 25 1472 25 
C 890 25 448 438 448 940 
C 448 1443 838 1862 1280 2060 
L 2080 1519 
z
" transform="scale(0.015625)"/>
       </defs>
       <use xlink:href="#CMR17-31" transform="scale(0.996264)"/>
       <use xlink:href="#CMR17-38" transform="translate(45.690477 0) scale(0.996264)"/>
      </g>
     </g>
    </g>
    <g id="xtick_4">
     <g id="line2d_10">
      <path d="M 210.651429 307.584 
L 210.651429 41.472 
" clip-path="url(#pf145561ccb)" style="fill: none; stroke-dasharray: 2.22,0.96; stroke-dashoffset: 0; stroke: #b2b2b2; stroke-width: 0.6"/>
     </g>
     <g id="line2d_11">
      <g>
       <use xlink:href="#m9e0f76f84a" x="210.651429" y="307.584" style="stroke: #000000; stroke-width: 0.6"/>
      </g>
     </g>
     <g id="line2d_12">
      <g>
       <use xlink:href="#me2776d881e" x="210.651429" y="41.472" style="stroke: #000000; stroke-width: 0.6"/>
      </g>
     </g>
     <g id="text_4">
      <!-- $\mathdefault{27}$ -->
      <g transform="translate(203.627855 321.046625) scale(0.144 -0.144)">
       <defs>
        <path id="CMR17-32" d="M 2669 989 
L 2554 989 
C 2490 536 2438 459 2413 420 
C 2381 369 1920 369 1830 369 
L 602 369 
C 832 619 1280 1072 1824 1597 
C 2214 1967 2669 2402 2669 3035 
C 2669 3790 2067 4224 1395 4224 
C 691 4224 262 3604 262 3030 
C 262 2780 448 2748 525 2748 
C 589 2748 781 2787 781 3010 
C 781 3207 614 3264 525 3264 
C 486 3264 448 3258 422 3245 
C 544 3790 915 4058 1306 4058 
C 1862 4058 2227 3617 2227 3035 
C 2227 2479 1901 2000 1536 1584 
L 262 146 
L 262 0 
L 2515 0 
L 2669 989 
z
" transform="scale(0.015625)"/>
        <path id="CMR17-37" d="M 2886 3941 
L 2886 4081 
L 1382 4081 
C 634 4081 621 4165 595 4288 
L 480 4288 
L 294 3094 
L 410 3094 
C 429 3215 474 3540 550 3661 
C 589 3712 1062 3712 1171 3712 
L 2579 3712 
L 1869 2661 
C 1395 1954 1069 999 1069 165 
C 1069 89 1069 -128 1299 -128 
C 1530 -128 1530 89 1530 171 
L 1530 465 
C 1530 1508 1709 2196 2003 2636 
L 2886 3941 
z
" transform="scale(0.015625)"/>
       </defs>
       <use xlink:href="#CMR17-32" transform="scale(0.996264)"/>
       <use xlink:href="#CMR17-37" transform="translate(45.690477 0) scale(0.996264)"/>
      </g>
     </g>
    </g>
    <g id="xtick_5">
     <g id="line2d_13">
      <path d="M 261.668571 307.584 
L 261.668571 41.472 
" clip-path="url(#pf145561ccb)" style="fill: none; stroke-dasharray: 2.22,0.96; stroke-dashoffset: 0; stroke: #b2b2b2; stroke-width: 0.6"/>
     </g>
     <g id="line2d_14">
      <g>
       <use xlink:href="#m9e0f76f84a" x="261.668571" y="307.584" style="stroke: #000000; stroke-width: 0.6"/>
      </g>
     </g>
     <g id="line2d_15">
      <g>
       <use xlink:href="#me2776d881e" x="261.668571" y="41.472" style="stroke: #000000; stroke-width: 0.6"/>
      </g>
     </g>
     <g id="text_5">
      <!-- $\mathdefault{36}$ -->
      <g transform="translate(254.644998 321.046625) scale(0.144 -0.144)">
       <defs>
        <path id="CMR17-33" d="M 1414 2157 
C 1984 2157 2234 1662 2234 1090 
C 2234 320 1824 25 1453 25 
C 1114 25 563 194 390 693 
C 422 680 454 680 486 680 
C 640 680 755 782 755 948 
C 755 1133 614 1216 486 1216 
C 378 1216 211 1165 211 926 
C 211 335 787 -128 1466 -128 
C 2176 -128 2720 430 2720 1085 
C 2720 1707 2208 2157 1600 2227 
C 2086 2328 2554 2756 2554 3329 
C 2554 3820 2048 4179 1472 4179 
C 890 4179 378 3829 378 3329 
C 378 3110 544 3072 627 3072 
C 762 3072 877 3155 877 3321 
C 877 3486 762 3569 627 3569 
C 602 3569 570 3569 544 3557 
C 730 3959 1235 4032 1459 4032 
C 1683 4032 2106 3925 2106 3320 
C 2106 3143 2080 2828 1862 2550 
C 1670 2304 1453 2304 1242 2284 
C 1210 2284 1062 2269 1037 2269 
C 992 2263 966 2257 966 2208 
C 966 2163 973 2157 1101 2157 
L 1414 2157 
z
" transform="scale(0.015625)"/>
        <path id="CMR17-36" d="M 678 2176 
C 678 3690 1395 4032 1811 4032 
C 1946 4032 2272 4009 2400 3776 
C 2298 3776 2106 3776 2106 3553 
C 2106 3381 2246 3323 2336 3323 
C 2394 3323 2566 3348 2566 3560 
C 2566 3954 2246 4179 1805 4179 
C 1043 4179 243 3390 243 1984 
C 243 253 966 -128 1478 -128 
C 2099 -128 2688 427 2688 1283 
C 2688 2081 2170 2662 1517 2662 
C 1126 2662 838 2407 678 1960 
L 678 2176 
z
M 1478 25 
C 691 25 691 1200 691 1436 
C 691 1896 909 2560 1504 2560 
C 1613 2560 1926 2560 2138 2120 
C 2253 1870 2253 1609 2253 1289 
C 2253 944 2253 690 2118 434 
C 1978 171 1773 25 1478 25 
z
" transform="scale(0.015625)"/>
       </defs>
       <use xlink:href="#CMR17-33" transform="scale(0.996264)"/>
       <use xlink:href="#CMR17-36" transform="translate(45.690477 0) scale(0.996264)"/>
      </g>
     </g>
    </g>
    <g id="xtick_6">
     <g id="line2d_16">
      <path d="M 312.685714 307.584 
L 312.685714 41.472 
" clip-path="url(#pf145561ccb)" style="fill: none; stroke-dasharray: 2.22,0.96; stroke-dashoffset: 0; stroke: #b2b2b2; stroke-width: 0.6"/>
     </g>
     <g id="line2d_17">
      <g>
       <use xlink:href="#m9e0f76f84a" x="312.685714" y="307.584" style="stroke: #000000; stroke-width: 0.6"/>
      </g>
     </g>
     <g id="line2d_18">
      <g>
       <use xlink:href="#me2776d881e" x="312.685714" y="41.472" style="stroke: #000000; stroke-width: 0.6"/>
      </g>
     </g>
     <g id="text_6">
      <!-- $\mathdefault{45}$ -->
      <g transform="translate(305.662141 321.046625) scale(0.144 -0.144)">
       <defs>
        <path id="CMR17-34" d="M 2150 4122 
C 2150 4256 2144 4256 2029 4256 
L 128 1254 
L 128 1088 
L 1779 1088 
L 1779 457 
C 1779 224 1766 160 1318 160 
L 1197 160 
L 1197 0 
C 1402 0 1747 0 1965 0 
C 2182 0 2528 0 2733 0 
L 2733 160 
L 2611 160 
C 2163 160 2150 224 2150 457 
L 2150 1088 
L 2803 1088 
L 2803 1254 
L 2150 1254 
L 2150 4122 
z
M 1798 3703 
L 1798 1254 
L 256 1254 
L 1798 3703 
z
" transform="scale(0.015625)"/>
        <path id="CMR17-35" d="M 730 3692 
C 794 3666 1056 3584 1325 3584 
C 1920 3584 2246 3911 2432 4100 
C 2432 4157 2432 4192 2394 4192 
C 2387 4192 2374 4192 2323 4163 
C 2099 4058 1837 3973 1517 3973 
C 1325 3973 1037 3999 723 4139 
C 653 4171 640 4171 634 4171 
C 602 4171 595 4164 595 4037 
L 595 2203 
C 595 2089 595 2057 659 2057 
C 691 2057 704 2070 736 2114 
C 941 2401 1222 2522 1542 2522 
C 1766 2522 2246 2382 2246 1289 
C 2246 1085 2246 715 2054 421 
C 1894 159 1645 25 1370 25 
C 947 25 518 320 403 814 
C 429 807 480 795 506 795 
C 589 795 749 840 749 1038 
C 749 1210 627 1280 506 1280 
C 358 1280 262 1190 262 1011 
C 262 454 704 -128 1382 -128 
C 2042 -128 2669 440 2669 1264 
C 2669 2030 2170 2624 1549 2624 
C 1222 2624 947 2503 730 2274 
L 730 3692 
z
" transform="scale(0.015625)"/>
       </defs>
       <use xlink:href="#CMR17-34" transform="scale(0.996264)"/>
       <use xlink:href="#CMR17-35" transform="translate(45.690477 0) scale(0.996264)"/>
      </g>
     </g>
    </g>
    <g id="xtick_7">
     <g id="line2d_19">
      <path d="M 363.702857 307.584 
L 363.702857 41.472 
" clip-path="url(#pf145561ccb)" style="fill: none; stroke-dasharray: 2.22,0.96; stroke-dashoffset: 0; stroke: #b2b2b2; stroke-width: 0.6"/>
     </g>
     <g id="line2d_20">
      <g>
       <use xlink:href="#m9e0f76f84a" x="363.702857" y="307.584" style="stroke: #000000; stroke-width: 0.6"/>
      </g>
     </g>
     <g id="line2d_21">
      <g>
       <use xlink:href="#me2776d881e" x="363.702857" y="41.472" style="stroke: #000000; stroke-width: 0.6"/>
      </g>
     </g>
     <g id="text_7">
      <!-- $\mathdefault{54}$ -->
      <g transform="translate(356.679284 321.046625) scale(0.144 -0.144)">
       <use xlink:href="#CMR17-35" transform="scale(0.996264)"/>
       <use xlink:href="#CMR17-34" transform="translate(45.690477 0) scale(0.996264)"/>
      </g>
     </g>
    </g>
    <g id="xtick_8">
     <g id="line2d_22">
      <path d="M 414.72 307.584 
L 414.72 41.472 
" clip-path="url(#pf145561ccb)" style="fill: none; stroke-dasharray: 2.22,0.96; stroke-dashoffset: 0; stroke: #b2b2b2; stroke-width: 0.6"/>
     </g>
     <g id="line2d_23">
      <g>
       <use xlink:href="#m9e0f76f84a" x="414.72" y="307.584" style="stroke: #000000; stroke-width: 0.6"/>
      </g>
     </g>
     <g id="line2d_24">
      <g>
       <use xlink:href="#me2776d881e" x="414.72" y="41.472" style="stroke: #000000; stroke-width: 0.6"/>
      </g>
     </g>
     <g id="text_8">
      <!-- $\mathdefault{63}$ -->
      <g transform="translate(407.696427 321.046625) scale(0.144 -0.144)">
       <use xlink:href="#CMR17-36" transform="scale(0.996264)"/>
       <use xlink:href="#CMR17-33" transform="translate(45.690477 0) scale(0.996264)"/>
      </g>
     </g>
    </g>
    <g id="text_9">
     <!-- Output filter index [-] -->
     <g transform="translate(169.240979 338.595791) scale(0.144 -0.144)">
      <defs>
       <path id="CMR17-4f" d="M 4307 2135 
C 4307 3437 3366 4416 2304 4416 
C 1216 4416 294 3424 294 2135 
C 294 845 1229 -128 2298 -128 
C 3392 -128 4307 864 4307 2135 
z
M 2304 -13 
C 1574 -13 781 711 781 2217 
C 781 3716 1651 4301 2298 4301 
C 2976 4301 3821 3698 3821 2217 
C 3821 686 3008 -13 2304 -13 
z
" transform="scale(0.015625)"/>
       <path id="CMR17-75" d="M 1882 2693 
L 1882 2528 
C 2259 2528 2317 2489 2317 2186 
L 2317 1032 
C 2317 500 2029 38 1555 38 
C 1030 38 986 348 986 678 
L 986 2763 
L 211 2693 
L 211 2528 
C 467 2528 640 2528 646 2274 
L 646 1058 
C 646 633 646 361 813 183 
C 896 101 1056 -64 1517 -64 
C 2061 -64 2272 377 2323 506 
L 2330 506 
L 2330 -63 
L 3091 -63 
L 3091 128 
C 2714 128 2656 166 2656 473 
L 2656 2763 
L 1882 2693 
z
" transform="scale(0.015625)"/>
       <path id="CMR17-74" d="M 966 2560 
L 1862 2560 
L 1862 2725 
L 966 2725 
L 966 3904 
L 851 3904 
C 838 3245 614 2668 70 2668 
L 70 2560 
L 627 2560 
L 627 771 
C 627 650 627 -64 1370 -64 
C 1747 -64 1965 306 1965 777 
L 1965 1140 
L 1850 1140 
L 1850 783 
C 1850 344 1677 51 1408 51 
C 1222 51 966 178 966 758 
L 966 2560 
z
" transform="scale(0.015625)"/>
       <path id="CMR17-70" d="M 1408 -1063 
C 998 -1063 973 -1037 973 -789 
L 973 402 
C 1158 134 1427 -38 1766 -38 
C 2406 -38 3053 523 3053 1388 
C 3053 2191 2496 2802 1837 2802 
C 1453 2802 1139 2592 960 2338 
L 960 2802 
L 198 2732 
L 198 2567 
C 576 2567 634 2528 634 2223 
L 634 -789 
C 634 -1031 608 -1063 198 -1063 
L 198 -1228 
C 352 -1216 634 -1216 800 -1216 
C 966 -1216 1254 -1216 1408 -1228 
L 1408 -1063 
z
M 973 2012 
C 973 2102 973 2235 1222 2471 
C 1254 2497 1472 2688 1792 2688 
C 2259 2688 2643 2108 2643 1382 
C 2643 656 2234 64 1728 64 
C 1498 64 1248 172 1056 472 
C 973 612 973 650 973 752 
L 973 2012 
z
" transform="scale(0.015625)"/>
       <path id="CMR17-c" d="M 2554 2764 
C 2400 2764 1926 2764 1805 2739 
C 1766 2725 1754 2725 1677 2725 
L 947 2725 
L 947 3469 
C 947 4073 1434 4352 1818 4352 
C 1939 4352 2214 4320 2355 4101 
C 2291 4101 2086 4101 2086 3878 
C 2086 3725 2189 3648 2317 3648 
C 2432 3648 2547 3712 2547 3885 
C 2547 4205 2240 4454 1843 4454 
C 1338 4454 634 4168 634 3469 
L 634 2725 
L 122 2725 
L 122 2560 
L 634 2560 
L 634 427 
C 634 184 608 153 198 153 
L 198 -13 
C 352 0 634 0 794 0 
C 960 0 1242 0 1395 -13 
L 1395 153 
C 986 153 960 178 960 427 
L 960 2560 
L 1901 2560 
C 2176 2560 2227 2502 2227 2222 
L 2227 427 
C 2227 184 2202 153 1792 153 
L 1792 -13 
C 1946 0 2227 0 2387 0 
C 2554 0 2835 0 2989 -13 
L 2989 153 
C 2579 153 2554 178 2554 427 
L 2554 2764 
z
" transform="scale(0.015625)"/>
       <path id="CMR17-6c" d="M 979 4396 
L 218 4326 
L 218 4160 
C 595 4160 653 4122 653 3817 
L 653 426 
C 653 184 627 153 218 153 
L 218 -13 
C 371 0 653 0 813 0 
C 979 0 1261 0 1414 -13 
L 1414 153 
C 1005 153 979 178 979 426 
L 979 4396 
z
" transform="scale(0.015625)"/>
       <path id="CMR17-65" d="M 2438 1472 
C 2464 1498 2464 1511 2464 1576 
C 2464 2238 2118 2816 1389 2816 
C 710 2816 173 2169 173 1383 
C 173 551 781 -64 1459 -64 
C 2176 -64 2458 607 2458 740 
C 2458 784 2419 784 2406 784 
C 2362 784 2355 771 2330 696 
C 2189 265 1837 51 1504 51 
C 1229 51 954 203 781 480 
C 582 803 582 1176 582 1472 
L 2438 1472 
z
M 589 1568 
C 634 2505 1126 2714 1382 2714 
C 1818 2714 2112 2297 2118 1568 
L 589 1568 
z
" transform="scale(0.015625)"/>
       <path id="CMR17-72" d="M 960 1497 
C 960 2112 1222 2688 1702 2688 
C 1747 2688 1792 2682 1837 2662 
C 1837 2662 1696 2617 1696 2452 
C 1696 2298 1818 2234 1914 2234 
C 1990 2234 2131 2279 2131 2458 
C 2131 2663 1926 2790 1709 2790 
C 1222 2790 1011 2317 947 2093 
L 941 2093 
L 941 2790 
L 198 2720 
L 198 2554 
C 576 2554 634 2515 634 2208 
L 634 428 
C 634 184 608 153 198 153 
L 198 -13 
C 352 0 646 0 813 0 
C 998 0 1325 0 1498 -13 
L 1498 153 
C 1037 153 960 153 960 440 
L 960 1497 
z
" transform="scale(0.015625)"/>
       <path id="CMR17-69" d="M 992 3909 
C 992 4049 877 4170 730 4170 
C 589 4170 467 4056 467 3909 
C 467 3769 582 3648 730 3648 
C 870 3648 992 3763 992 3909 
z
M 243 2706 
L 243 2541 
C 602 2541 653 2502 653 2197 
L 653 427 
C 653 184 627 153 218 153 
L 218 -13 
C 371 0 646 0 806 0 
C 960 0 1222 0 1370 -13 
L 1370 153 
C 992 153 979 191 979 420 
L 979 2776 
L 243 2706 
z
" transform="scale(0.015625)"/>
       <path id="CMR17-6e" d="M 2656 1933 
C 2656 2259 2592 2790 1837 2790 
C 1331 2790 1069 2400 973 2144 
L 966 2144 
L 966 2790 
L 211 2720 
L 211 2554 
C 589 2554 646 2515 646 2208 
L 646 428 
C 646 184 621 153 211 153 
L 211 -13 
C 365 0 646 0 813 0 
C 979 0 1267 0 1421 -13 
L 1421 153 
C 1011 153 986 178 986 428 
L 986 1658 
C 986 2247 1344 2688 1792 2688 
C 2266 2688 2317 2266 2317 1958 
L 2317 428 
C 2317 184 2291 153 1882 153 
L 1882 -13 
C 2035 0 2317 0 2483 0 
C 2650 0 2938 0 3091 -13 
L 3091 153 
C 2682 153 2656 178 2656 428 
L 2656 1933 
z
" transform="scale(0.015625)"/>
       <path id="CMR17-64" d="M 1869 4326 
L 1869 4160 
C 2246 4160 2304 4122 2304 3820 
L 2304 2345 
C 2278 2377 2016 2790 1498 2790 
C 845 2790 211 2208 211 1364 
C 211 525 806 -64 1434 -64 
C 1978 -64 2259 337 2291 380 
L 2291 -63 
L 3066 -63 
L 3066 128 
C 2688 128 2630 166 2630 473 
L 2630 4396 
L 1869 4326 
z
M 2291 755 
C 2291 563 2176 390 2029 262 
C 1811 70 1594 38 1472 38 
C 1286 38 621 134 621 1356 
C 621 2612 1363 2688 1530 2688 
C 1824 2688 2061 2522 2208 2291 
C 2291 2157 2291 2138 2291 2023 
L 2291 755 
z
" transform="scale(0.015625)"/>
       <path id="CMR17-78" d="M 1664 1477 
C 1856 1726 2074 2006 2253 2216 
C 2464 2458 2707 2560 2989 2560 
L 2989 2726 
C 2880 2726 2656 2726 2541 2726 
C 2368 2726 2170 2726 2022 2732 
L 2022 2566 
C 2112 2553 2163 2489 2163 2400 
C 2163 2285 2099 2215 2067 2171 
L 1594 1573 
L 1030 2306 
C 973 2376 973 2388 973 2420 
C 973 2497 1037 2560 1146 2560 
L 1146 2732 
C 992 2726 717 2726 557 2726 
C 384 2726 179 2726 38 2732 
L 38 2560 
C 384 2560 461 2534 614 2343 
L 1350 1395 
C 1363 1382 1395 1344 1395 1325 
C 1395 1299 838 619 768 530 
C 480 185 179 160 6 160 
L 6 0 
C 115 0 339 0 454 0 
C 582 0 864 0 979 -6 
L 979 160 
C 941 166 838 179 838 325 
C 838 440 890 510 947 586 
L 1478 1236 
L 2035 512 
C 2086 442 2163 346 2163 301 
C 2163 211 2086 160 1984 160 
L 1984 -6 
C 2138 0 2413 0 2573 0 
C 2746 0 2950 0 3091 -6 
L 3091 160 
C 2771 160 2675 172 2522 370 
L 1664 1477 
z
" transform="scale(0.015625)"/>
       <path id="CMR17-5b" d="M 1504 -1600 
L 1504 -1377 
L 902 -1377 
L 902 4544 
L 1504 4544 
L 1504 4767 
L 678 4767 
L 678 -1600 
L 1504 -1600 
z
" transform="scale(0.015625)"/>
       <path id="CMR17-2d" d="M 1632 1216 
L 1632 1496 
L 26 1496 
L 26 1216 
L 1632 1216 
z
" transform="scale(0.015625)"/>
       <path id="CMR17-5d" d="M 915 4767 
L 90 4767 
L 90 4544 
L 691 4544 
L 691 -1377 
L 90 -1377 
L 90 -1600 
L 915 -1600 
L 915 4767 
z
" transform="scale(0.015625)"/>
      </defs>
      <use xlink:href="#CMR17-4f" transform="scale(0.996264)"/>
      <use xlink:href="#CMR17-75" transform="translate(71.714788 0) scale(0.996264)"/>
      <use xlink:href="#CMR17-74" transform="translate(122.610158 0) scale(0.996264)"/>
      <use xlink:href="#CMR17-70" transform="translate(157.890926 0) scale(0.996264)"/>
      <use xlink:href="#CMR17-75" transform="translate(208.786296 0) scale(0.996264)"/>
      <use xlink:href="#CMR17-74" transform="translate(259.681666 0) scale(0.996264)"/>
      <use xlink:href="#CMR17-c" transform="translate(325.0384 0) scale(0.996264)"/>
      <use xlink:href="#CMR17-6c" transform="translate(374.780623 0) scale(0.996264)"/>
      <use xlink:href="#CMR17-74" transform="translate(399.651682 0) scale(0.996264)"/>
      <use xlink:href="#CMR17-65" transform="translate(434.932449 0) scale(0.996264)"/>
      <use xlink:href="#CMR17-72" transform="translate(475.41811 0) scale(0.996264)"/>
      <use xlink:href="#CMR17-69" transform="translate(540.774844 0) scale(0.996264)"/>
      <use xlink:href="#CMR17-6e" transform="translate(565.645902 0) scale(0.996264)"/>
      <use xlink:href="#CMR17-64" transform="translate(616.541272 0) scale(0.996264)"/>
      <use xlink:href="#CMR17-65" transform="translate(667.436642 0) scale(0.996264)"/>
      <use xlink:href="#CMR17-78" transform="translate(707.922302 0) scale(0.996264)"/>
      <use xlink:href="#CMR17-5b" transform="translate(786.291185 0) scale(0.996264)"/>
      <use xlink:href="#CMR17-2d" transform="translate(811.162243 0) scale(0.996264)"/>
      <use xlink:href="#CMR17-5d" transform="translate(841.238209 0) scale(0.996264)"/>
     </g>
    </g>
   </g>
   <g id="matplotlib.axis_2">
    <g id="ytick_1">
     <g id="line2d_25">
      <path d="M 57.6 290.714741 
L 414.72 290.714741 
" clip-path="url(#pf145561ccb)" style="fill: none; stroke-dasharray: 2.22,0.96; stroke-dashoffset: 0; stroke: #b2b2b2; stroke-width: 0.6"/>
     </g>
     <g id="line2d_26">
      <defs>
       <path id="m09d0fbab81" d="M 0 0 
L 3.5 0 
" style="stroke: #000000; stroke-width: 0.6"/>
      </defs>
      <g>
       <use xlink:href="#m09d0fbab81" x="57.6" y="290.714741" style="stroke: #000000; stroke-width: 0.6"/>
      </g>
     </g>
     <g id="text_10">
      <!-- $\mathdefault{0.0}$ -->
      <g transform="translate(36.150876 295.696053) scale(0.144 -0.144)">
       <defs>
        <path id="CMMI12-3a" d="M 1178 307 
C 1178 492 1024 619 870 619 
C 685 619 557 466 557 313 
C 557 128 710 0 864 0 
C 1050 0 1178 153 1178 307 
z
" transform="scale(0.015625)"/>
       </defs>
       <use xlink:href="#CMR17-30" transform="scale(0.996264)"/>
       <use xlink:href="#CMMI12-3a" transform="translate(45.690477 0) scale(0.996264)"/>
       <use xlink:href="#CMR17-30" transform="translate(72.787654 0) scale(0.996264)"/>
      </g>
     </g>
    </g>
    <g id="ytick_2">
     <g id="line2d_27">
      <path d="M 57.6 243.285393 
L 414.72 243.285393 
" clip-path="url(#pf145561ccb)" style="fill: none; stroke-dasharray: 2.22,0.96; stroke-dashoffset: 0; stroke: #b2b2b2; stroke-width: 0.6"/>
     </g>
     <g id="line2d_28">
      <g>
       <use xlink:href="#m09d0fbab81" x="57.6" y="243.285393" style="stroke: #000000; stroke-width: 0.6"/>
      </g>
     </g>
     <g id="text_11">
      <!-- $\mathdefault{0.2}$ -->
      <g transform="translate(36.150876 248.266705) scale(0.144 -0.144)">
       <use xlink:href="#CMR17-30" transform="scale(0.996264)"/>
       <use xlink:href="#CMMI12-3a" transform="translate(45.690477 0) scale(0.996264)"/>
       <use xlink:href="#CMR17-32" transform="translate(72.787654 0) scale(0.996264)"/>
      </g>
     </g>
    </g>
    <g id="ytick_3">
     <g id="line2d_29">
      <path d="M 57.6 195.856045 
L 414.72 195.856045 
" clip-path="url(#pf145561ccb)" style="fill: none; stroke-dasharray: 2.22,0.96; stroke-dashoffset: 0; stroke: #b2b2b2; stroke-width: 0.6"/>
     </g>
     <g id="line2d_30">
      <g>
       <use xlink:href="#m09d0fbab81" x="57.6" y="195.856045" style="stroke: #000000; stroke-width: 0.6"/>
      </g>
     </g>
     <g id="text_12">
      <!-- $\mathdefault{0.4}$ -->
      <g transform="translate(36.150876 200.837357) scale(0.144 -0.144)">
       <use xlink:href="#CMR17-30" transform="scale(0.996264)"/>
       <use xlink:href="#CMMI12-3a" transform="translate(45.690477 0) scale(0.996264)"/>
       <use xlink:href="#CMR17-34" transform="translate(72.787654 0) scale(0.996264)"/>
      </g>
     </g>
    </g>
    <g id="ytick_4">
     <g id="line2d_31">
      <path d="M 57.6 148.426696 
L 414.72 148.426696 
" clip-path="url(#pf145561ccb)" style="fill: none; stroke-dasharray: 2.22,0.96; stroke-dashoffset: 0; stroke: #b2b2b2; stroke-width: 0.6"/>
     </g>
     <g id="line2d_32">
      <g>
       <use xlink:href="#m09d0fbab81" x="57.6" y="148.426696" style="stroke: #000000; stroke-width: 0.6"/>
      </g>
     </g>
     <g id="text_13">
      <!-- $\mathdefault{0.6}$ -->
      <g transform="translate(36.150876 153.408009) scale(0.144 -0.144)">
       <use xlink:href="#CMR17-30" transform="scale(0.996264)"/>
       <use xlink:href="#CMMI12-3a" transform="translate(45.690477 0) scale(0.996264)"/>
       <use xlink:href="#CMR17-36" transform="translate(72.787654 0) scale(0.996264)"/>
      </g>
     </g>
    </g>
    <g id="ytick_5">
     <g id="line2d_33">
      <path d="M 57.6 100.997348 
L 414.72 100.997348 
" clip-path="url(#pf145561ccb)" style="fill: none; stroke-dasharray: 2.22,0.96; stroke-dashoffset: 0; stroke: #b2b2b2; stroke-width: 0.6"/>
     </g>
     <g id="line2d_34">
      <g>
       <use xlink:href="#m09d0fbab81" x="57.6" y="100.997348" style="stroke: #000000; stroke-width: 0.6"/>
      </g>
     </g>
     <g id="text_14">
      <!-- $\mathdefault{0.8}$ -->
      <g transform="translate(36.150876 105.978661) scale(0.144 -0.144)">
       <use xlink:href="#CMR17-30" transform="scale(0.996264)"/>
       <use xlink:href="#CMMI12-3a" transform="translate(45.690477 0) scale(0.996264)"/>
       <use xlink:href="#CMR17-38" transform="translate(72.787654 0) scale(0.996264)"/>
      </g>
     </g>
    </g>
    <g id="ytick_6">
     <g id="line2d_35">
      <path d="M 57.6 53.568 
L 414.72 53.568 
" clip-path="url(#pf145561ccb)" style="fill: none; stroke-dasharray: 2.22,0.96; stroke-dashoffset: 0; stroke: #b2b2b2; stroke-width: 0.6"/>
     </g>
     <g id="line2d_36">
      <g>
       <use xlink:href="#m09d0fbab81" x="57.6" y="53.568" style="stroke: #000000; stroke-width: 0.6"/>
      </g>
     </g>
     <g id="text_15">
      <!-- $\mathdefault{1.0}$ -->
      <g transform="translate(36.150876 58.549312) scale(0.144 -0.144)">
       <use xlink:href="#CMR17-31" transform="scale(0.996264)"/>
       <use xlink:href="#CMMI12-3a" transform="translate(45.690477 0) scale(0.996264)"/>
       <use xlink:href="#CMR17-30" transform="translate(72.787654 0) scale(0.996264)"/>
      </g>
     </g>
    </g>
    <g id="text_16">
     <!-- Amplitude [-] -->
     <g transform="translate(28.564334 215.691455) rotate(-90) scale(0.144 -0.144)">
      <defs>
       <path id="CMR17-41" d="M 2323 4378 
C 2291 4461 2278 4480 2214 4480 
C 2150 4480 2138 4461 2106 4378 
L 749 566 
C 627 223 371 153 147 153 
L 147 -13 
C 262 0 518 0 640 0 
C 800 0 1056 0 1210 -13 
L 1210 153 
C 909 153 864 361 864 439 
C 864 497 877 530 890 569 
L 1229 1536 
L 2906 1536 
L 3290 442 
C 3322 365 3322 352 3322 327 
C 3322 153 3046 153 2925 153 
L 2925 0 
C 3110 0 3443 0 3642 0 
C 3808 0 4128 0 4282 -13 
L 4282 153 
C 3942 153 3827 153 3744 387 
L 2323 4378 
z
M 2067 3893 
L 2848 1702 
L 1286 1702 
L 2067 3893 
z
" transform="scale(0.015625)"/>
       <path id="CMR17-6d" d="M 4326 1933 
C 4326 2252 4269 2790 3507 2790 
C 3072 2790 2771 2496 2656 2151 
L 2650 2151 
C 2573 2676 2195 2790 1837 2790 
C 1331 2790 1069 2400 973 2144 
L 966 2144 
L 966 2790 
L 211 2720 
L 211 2554 
C 589 2554 646 2515 646 2208 
L 646 428 
C 646 184 621 153 211 153 
L 211 -13 
C 365 0 646 0 813 0 
C 979 0 1267 0 1421 -13 
L 1421 153 
C 1011 153 986 178 986 428 
L 986 1658 
C 986 2247 1344 2688 1792 2688 
C 2266 2688 2317 2266 2317 1958 
L 2317 428 
C 2317 184 2291 153 1882 153 
L 1882 -13 
C 2035 0 2317 0 2483 0 
C 2650 0 2938 0 3091 -13 
L 3091 153 
C 2682 153 2656 178 2656 428 
L 2656 1658 
C 2656 2247 3014 2688 3462 2688 
C 3936 2688 3987 2266 3987 1958 
L 3987 428 
C 3987 184 3962 153 3552 153 
L 3552 -13 
C 3706 0 3987 0 4154 0 
C 4320 0 4608 0 4762 -13 
L 4762 153 
C 4352 153 4326 178 4326 428 
L 4326 1933 
z
" transform="scale(0.015625)"/>
      </defs>
      <use xlink:href="#CMR17-41" transform="scale(0.996264)"/>
      <use xlink:href="#CMR17-6d" transform="translate(69.07243 0) scale(0.996264)"/>
      <use xlink:href="#CMR17-70" transform="translate(145.99202 0) scale(0.996264)"/>
      <use xlink:href="#CMR17-6c" transform="translate(196.887389 0) scale(0.996264)"/>
      <use xlink:href="#CMR17-69" transform="translate(221.758448 0) scale(0.996264)"/>
      <use xlink:href="#CMR17-74" transform="translate(246.629506 0) scale(0.996264)"/>
      <use xlink:href="#CMR17-75" transform="translate(281.910274 0) scale(0.996264)"/>
      <use xlink:href="#CMR17-64" transform="translate(332.805644 0) scale(0.996264)"/>
      <use xlink:href="#CMR17-65" transform="translate(383.701014 0) scale(0.996264)"/>
      <use xlink:href="#CMR17-5b" transform="translate(454.262641 0) scale(0.996264)"/>
      <use xlink:href="#CMR17-2d" transform="translate(479.133699 0) scale(0.996264)"/>
      <use xlink:href="#CMR17-5d" transform="translate(509.209665 0) scale(0.996264)"/>
     </g>
    </g>
   </g>
   <g id="line2d_37">
    <path d="M 57.6 290.658585 
L 63.268571 290.097025 
L 68.937143 291.388613 
L 74.605714 290.883209 
L 80.274286 291.781705 
L 85.942857 290.490117 
L 91.611429 290.939365 
L 97.28 290.209337 
L 102.948571 290.714741 
L 108.617143 290.602429 
L 114.285714 290.883209 
L 119.954286 290.658585 
L 125.622857 291.276301 
L 131.291429 290.995521 
L 136.96 291.444769 
L 142.628571 290.321649 
L 148.297143 291.051677 
L 153.965714 277.798864 
L 159.634286 272.857136 
L 165.302857 271.958641 
L 170.971429 269.712401 
L 176.64 268.926217 
L 182.308571 272.464045 
L 187.977143 273.306384 
L 193.645714 272.295577 
L 199.314286 273.306384 
L 204.982857 272.239421 
L 210.651429 272.744825 
L 216.32 272.744825 
L 221.988571 272.576357 
L 227.657143 273.194072 
L 233.325714 271.453237 
L 238.994286 272.857136 
L 244.662857 271.003989 
L 250.331429 271.340925 
L 256 271.003989 
L 261.668571 270.891677 
L 267.337143 270.610897 
L 273.005714 245.733794 
L 278.674286 187.724657 
L 284.342857 175.426496 
L 290.011429 151.616357 
L 295.68 123.98761 
L 301.348571 112.307164 
L 307.017143 97.257359 
L 312.685714 79.568223 
L 318.354286 53.568 
L 324.022857 166.890786 
L 329.691429 276.001872 
L 335.36 279.371231 
L 341.028571 283.919866 
L 346.697143 284.088334 
L 352.365714 286.334574 
L 358.034286 285.997638 
L 363.702857 289.479309 
L 369.371429 287.963097 
L 375.04 291.781705 
L 380.708571 289.872401 
L 386.377143 292.848669 
L 392.045714 292.230953 
L 397.714286 294.027944 
L 403.382857 294.027944 
L 409.051429 295.431844 
L 414.72 295.488 
" clip-path="url(#pf145561ccb)" style="fill: none; stroke: #e01b24; stroke-width: 0.8; stroke-linecap: square"/>
    <defs>
     <path id="m81151fe885" d="M -2 2 
L 2 -2 
M -2 -2 
L 2 2 
" style="stroke: #e01b24"/>
    </defs>
    <g clip-path="url(#pf145561ccb)">
     <use xlink:href="#m81151fe885" x="57.6" y="290.658585" style="fill: #e01b24; stroke: #e01b24"/>
     <use xlink:href="#m81151fe885" x="63.268571" y="290.097025" style="fill: #e01b24; stroke: #e01b24"/>
     <use xlink:href="#m81151fe885" x="68.937143" y="291.388613" style="fill: #e01b24; stroke: #e01b24"/>
     <use xlink:href="#m81151fe885" x="74.605714" y="290.883209" style="fill: #e01b24; stroke: #e01b24"/>
     <use xlink:href="#m81151fe885" x="80.274286" y="291.781705" style="fill: #e01b24; stroke: #e01b24"/>
     <use xlink:href="#m81151fe885" x="85.942857" y="290.490117" style="fill: #e01b24; stroke: #e01b24"/>
     <use xlink:href="#m81151fe885" x="91.611429" y="290.939365" style="fill: #e01b24; stroke: #e01b24"/>
     <use xlink:href="#m81151fe885" x="97.28" y="290.209337" style="fill: #e01b24; stroke: #e01b24"/>
     <use xlink:href="#m81151fe885" x="102.948571" y="290.714741" style="fill: #e01b24; stroke: #e01b24"/>
     <use xlink:href="#m81151fe885" x="108.617143" y="290.602429" style="fill: #e01b24; stroke: #e01b24"/>
     <use xlink:href="#m81151fe885" x="114.285714" y="290.883209" style="fill: #e01b24; stroke: #e01b24"/>
     <use xlink:href="#m81151fe885" x="119.954286" y="290.658585" style="fill: #e01b24; stroke: #e01b24"/>
     <use xlink:href="#m81151fe885" x="125.622857" y="291.276301" style="fill: #e01b24; stroke: #e01b24"/>
     <use xlink:href="#m81151fe885" x="131.291429" y="290.995521" style="fill: #e01b24; stroke: #e01b24"/>
     <use xlink:href="#m81151fe885" x="136.96" y="291.444769" style="fill: #e01b24; stroke: #e01b24"/>
     <use xlink:href="#m81151fe885" x="142.628571" y="290.321649" style="fill: #e01b24; stroke: #e01b24"/>
     <use xlink:href="#m81151fe885" x="148.297143" y="291.051677" style="fill: #e01b24; stroke: #e01b24"/>
     <use xlink:href="#m81151fe885" x="153.965714" y="277.798864" style="fill: #e01b24; stroke: #e01b24"/>
     <use xlink:href="#m81151fe885" x="159.634286" y="272.857136" style="fill: #e01b24; stroke: #e01b24"/>
     <use xlink:href="#m81151fe885" x="165.302857" y="271.958641" style="fill: #e01b24; stroke: #e01b24"/>
     <use xlink:href="#m81151fe885" x="170.971429" y="269.712401" style="fill: #e01b24; stroke: #e01b24"/>
     <use xlink:href="#m81151fe885" x="176.64" y="268.926217" style="fill: #e01b24; stroke: #e01b24"/>
     <use xlink:href="#m81151fe885" x="182.308571" y="272.464045" style="fill: #e01b24; stroke: #e01b24"/>
     <use xlink:href="#m81151fe885" x="187.977143" y="273.306384" style="fill: #e01b24; stroke: #e01b24"/>
     <use xlink:href="#m81151fe885" x="193.645714" y="272.295577" style="fill: #e01b24; stroke: #e01b24"/>
     <use xlink:href="#m81151fe885" x="199.314286" y="273.306384" style="fill: #e01b24; stroke: #e01b24"/>
     <use xlink:href="#m81151fe885" x="204.982857" y="272.239421" style="fill: #e01b24; stroke: #e01b24"/>
     <use xlink:href="#m81151fe885" x="210.651429" y="272.744825" style="fill: #e01b24; stroke: #e01b24"/>
     <use xlink:href="#m81151fe885" x="216.32" y="272.744825" style="fill: #e01b24; stroke: #e01b24"/>
     <use xlink:href="#m81151fe885" x="221.988571" y="272.576357" style="fill: #e01b24; stroke: #e01b24"/>
     <use xlink:href="#m81151fe885" x="227.657143" y="273.194072" style="fill: #e01b24; stroke: #e01b24"/>
     <use xlink:href="#m81151fe885" x="233.325714" y="271.453237" style="fill: #e01b24; stroke: #e01b24"/>
     <use xlink:href="#m81151fe885" x="238.994286" y="272.857136" style="fill: #e01b24; stroke: #e01b24"/>
     <use xlink:href="#m81151fe885" x="244.662857" y="271.003989" style="fill: #e01b24; stroke: #e01b24"/>
     <use xlink:href="#m81151fe885" x="250.331429" y="271.340925" style="fill: #e01b24; stroke: #e01b24"/>
     <use xlink:href="#m81151fe885" x="256" y="271.003989" style="fill: #e01b24; stroke: #e01b24"/>
     <use xlink:href="#m81151fe885" x="261.668571" y="270.891677" style="fill: #e01b24; stroke: #e01b24"/>
     <use xlink:href="#m81151fe885" x="267.337143" y="270.610897" style="fill: #e01b24; stroke: #e01b24"/>
     <use xlink:href="#m81151fe885" x="273.005714" y="245.733794" style="fill: #e01b24; stroke: #e01b24"/>
     <use xlink:href="#m81151fe885" x="278.674286" y="187.724657" style="fill: #e01b24; stroke: #e01b24"/>
     <use xlink:href="#m81151fe885" x="284.342857" y="175.426496" style="fill: #e01b24; stroke: #e01b24"/>
     <use xlink:href="#m81151fe885" x="290.011429" y="151.616357" style="fill: #e01b24; stroke: #e01b24"/>
     <use xlink:href="#m81151fe885" x="295.68" y="123.98761" style="fill: #e01b24; stroke: #e01b24"/>
     <use xlink:href="#m81151fe885" x="301.348571" y="112.307164" style="fill: #e01b24; stroke: #e01b24"/>
     <use xlink:href="#m81151fe885" x="307.017143" y="97.257359" style="fill: #e01b24; stroke: #e01b24"/>
     <use xlink:href="#m81151fe885" x="312.685714" y="79.568223" style="fill: #e01b24; stroke: #e01b24"/>
     <use xlink:href="#m81151fe885" x="318.354286" y="53.568" style="fill: #e01b24; stroke: #e01b24"/>
     <use xlink:href="#m81151fe885" x="324.022857" y="166.890786" style="fill: #e01b24; stroke: #e01b24"/>
     <use xlink:href="#m81151fe885" x="329.691429" y="276.001872" style="fill: #e01b24; stroke: #e01b24"/>
     <use xlink:href="#m81151fe885" x="335.36" y="279.371231" style="fill: #e01b24; stroke: #e01b24"/>
     <use xlink:href="#m81151fe885" x="341.028571" y="283.919866" style="fill: #e01b24; stroke: #e01b24"/>
     <use xlink:href="#m81151fe885" x="346.697143" y="284.088334" style="fill: #e01b24; stroke: #e01b24"/>
     <use xlink:href="#m81151fe885" x="352.365714" y="286.334574" style="fill: #e01b24; stroke: #e01b24"/>
     <use xlink:href="#m81151fe885" x="358.034286" y="285.997638" style="fill: #e01b24; stroke: #e01b24"/>
     <use xlink:href="#m81151fe885" x="363.702857" y="289.479309" style="fill: #e01b24; stroke: #e01b24"/>
     <use xlink:href="#m81151fe885" x="369.371429" y="287.963097" style="fill: #e01b24; stroke: #e01b24"/>
     <use xlink:href="#m81151fe885" x="375.04" y="291.781705" style="fill: #e01b24; stroke: #e01b24"/>
     <use xlink:href="#m81151fe885" x="380.708571" y="289.872401" style="fill: #e01b24; stroke: #e01b24"/>
     <use xlink:href="#m81151fe885" x="386.377143" y="292.848669" style="fill: #e01b24; stroke: #e01b24"/>
     <use xlink:href="#m81151fe885" x="392.045714" y="292.230953" style="fill: #e01b24; stroke: #e01b24"/>
     <use xlink:href="#m81151fe885" x="397.714286" y="294.027944" style="fill: #e01b24; stroke: #e01b24"/>
     <use xlink:href="#m81151fe885" x="403.382857" y="294.027944" style="fill: #e01b24; stroke: #e01b24"/>
     <use xlink:href="#m81151fe885" x="409.051429" y="295.431844" style="fill: #e01b24; stroke: #e01b24"/>
     <use xlink:href="#m81151fe885" x="414.72" y="295.488" style="fill: #e01b24; stroke: #e01b24"/>
    </g>
   </g>
   <g id="line2d_38">
    <path d="M 57.6 291.065671 
L 63.268571 290.679648 
L 68.937143 289.895904 
L 74.605714 290.398904 
L 80.274286 290.632857 
L 85.942857 291.053973 
L 91.611429 291.556973 
L 97.28 289.989486 
L 102.948571 290.46909 
L 108.617143 290.866811 
L 114.285714 291.346415 
L 119.954286 291.732438 
L 125.622857 290.188346 
L 131.291429 291.089066 
L 136.96 290.738136 
L 142.628571 290.960392 
L 148.297143 290.129858 
L 153.965714 279.976285 
L 159.634286 271.612456 
L 165.302857 271.097759 
L 170.971429 268.418993 
L 176.64 268.851807 
L 182.308571 271.682642 
L 187.977143 272.255827 
L 193.645714 273.261826 
L 199.314286 272.29092 
L 204.982857 273.332012 
L 210.651429 272.630153 
L 216.32 271.975083 
L 221.988571 272.723734 
L 227.657143 273.320315 
L 233.325714 272.431292 
L 238.994286 271.823014 
L 244.662857 272.559967 
L 250.331429 272.162246 
L 256 272.489781 
L 261.668571 271.811316 
L 267.337143 270.302317 
L 273.005714 240.449879 
L 278.674286 183.470558 
L 284.342857 172.930963 
L 290.011429 147.231195 
L 295.68 123.017031 
L 301.348571 108.324765 
L 307.017143 95.972032 
L 312.685714 76.682584 
L 318.354286 53.568 
L 324.022857 168.766594 
L 329.691429 285.31042 
L 335.36 289.06537 
L 341.028571 290.808322 
L 346.697143 290.480788 
L 352.365714 290.586067 
L 358.034286 290.188346 
L 363.702857 291.030578 
L 369.371429 291.241136 
L 375.04 291.498484 
L 380.708571 292.165251 
L 386.377143 291.475089 
L 392.045714 291.276229 
L 397.714286 291.779228 
L 403.382857 291.393205 
L 409.051429 291.615461 
L 414.72 290.866811 
" clip-path="url(#pf145561ccb)" style="fill: none; stroke: #004cb2; stroke-width: 0.8; stroke-linecap: square"/>
    <defs>
     <path id="m8bf66c3671" d="M 0 1 
C 0.265203 1 0.51958 0.894634 0.707107 0.707107 
C 0.894634 0.51958 1 0.265203 1 0 
C 1 -0.265203 0.894634 -0.51958 0.707107 -0.707107 
C 0.51958 -0.894634 0.265203 -1 0 -1 
C -0.265203 -1 -0.51958 -0.894634 -0.707107 -0.707107 
C -0.894634 -0.51958 -1 -0.265203 -1 0 
C -1 0.265203 -0.894634 0.51958 -0.707107 0.707107 
C -0.51958 0.894634 -0.265203 1 0 1 
z
" style="stroke: #004cb2"/>
    </defs>
    <g clip-path="url(#pf145561ccb)">
     <use xlink:href="#m8bf66c3671" x="57.6" y="291.065671" style="fill: #004cb2; stroke: #004cb2"/>
     <use xlink:href="#m8bf66c3671" x="63.268571" y="290.679648" style="fill: #004cb2; stroke: #004cb2"/>
     <use xlink:href="#m8bf66c3671" x="68.937143" y="289.895904" style="fill: #004cb2; stroke: #004cb2"/>
     <use xlink:href="#m8bf66c3671" x="74.605714" y="290.398904" style="fill: #004cb2; stroke: #004cb2"/>
     <use xlink:href="#m8bf66c3671" x="80.274286" y="290.632857" style="fill: #004cb2; stroke: #004cb2"/>
     <use xlink:href="#m8bf66c3671" x="85.942857" y="291.053973" style="fill: #004cb2; stroke: #004cb2"/>
     <use xlink:href="#m8bf66c3671" x="91.611429" y="291.556973" style="fill: #004cb2; stroke: #004cb2"/>
     <use xlink:href="#m8bf66c3671" x="97.28" y="289.989486" style="fill: #004cb2; stroke: #004cb2"/>
     <use xlink:href="#m8bf66c3671" x="102.948571" y="290.46909" style="fill: #004cb2; stroke: #004cb2"/>
     <use xlink:href="#m8bf66c3671" x="108.617143" y="290.866811" style="fill: #004cb2; stroke: #004cb2"/>
     <use xlink:href="#m8bf66c3671" x="114.285714" y="291.346415" style="fill: #004cb2; stroke: #004cb2"/>
     <use xlink:href="#m8bf66c3671" x="119.954286" y="291.732438" style="fill: #004cb2; stroke: #004cb2"/>
     <use xlink:href="#m8bf66c3671" x="125.622857" y="290.188346" style="fill: #004cb2; stroke: #004cb2"/>
     <use xlink:href="#m8bf66c3671" x="131.291429" y="291.089066" style="fill: #004cb2; stroke: #004cb2"/>
     <use xlink:href="#m8bf66c3671" x="136.96" y="290.738136" style="fill: #004cb2; stroke: #004cb2"/>
     <use xlink:href="#m8bf66c3671" x="142.628571" y="290.960392" style="fill: #004cb2; stroke: #004cb2"/>
     <use xlink:href="#m8bf66c3671" x="148.297143" y="290.129858" style="fill: #004cb2; stroke: #004cb2"/>
     <use xlink:href="#m8bf66c3671" x="153.965714" y="279.976285" style="fill: #004cb2; stroke: #004cb2"/>
     <use xlink:href="#m8bf66c3671" x="159.634286" y="271.612456" style="fill: #004cb2; stroke: #004cb2"/>
     <use xlink:href="#m8bf66c3671" x="165.302857" y="271.097759" style="fill: #004cb2; stroke: #004cb2"/>
     <use xlink:href="#m8bf66c3671" x="170.971429" y="268.418993" style="fill: #004cb2; stroke: #004cb2"/>
     <use xlink:href="#m8bf66c3671" x="176.64" y="268.851807" style="fill: #004cb2; stroke: #004cb2"/>
     <use xlink:href="#m8bf66c3671" x="182.308571" y="271.682642" style="fill: #004cb2; stroke: #004cb2"/>
     <use xlink:href="#m8bf66c3671" x="187.977143" y="272.255827" style="fill: #004cb2; stroke: #004cb2"/>
     <use xlink:href="#m8bf66c3671" x="193.645714" y="273.261826" style="fill: #004cb2; stroke: #004cb2"/>
     <use xlink:href="#m8bf66c3671" x="199.314286" y="272.29092" style="fill: #004cb2; stroke: #004cb2"/>
     <use xlink:href="#m8bf66c3671" x="204.982857" y="273.332012" style="fill: #004cb2; stroke: #004cb2"/>
     <use xlink:href="#m8bf66c3671" x="210.651429" y="272.630153" style="fill: #004cb2; stroke: #004cb2"/>
     <use xlink:href="#m8bf66c3671" x="216.32" y="271.975083" style="fill: #004cb2; stroke: #004cb2"/>
     <use xlink:href="#m8bf66c3671" x="221.988571" y="272.723734" style="fill: #004cb2; stroke: #004cb2"/>
     <use xlink:href="#m8bf66c3671" x="227.657143" y="273.320315" style="fill: #004cb2; stroke: #004cb2"/>
     <use xlink:href="#m8bf66c3671" x="233.325714" y="272.431292" style="fill: #004cb2; stroke: #004cb2"/>
     <use xlink:href="#m8bf66c3671" x="238.994286" y="271.823014" style="fill: #004cb2; stroke: #004cb2"/>
     <use xlink:href="#m8bf66c3671" x="244.662857" y="272.559967" style="fill: #004cb2; stroke: #004cb2"/>
     <use xlink:href="#m8bf66c3671" x="250.331429" y="272.162246" style="fill: #004cb2; stroke: #004cb2"/>
     <use xlink:href="#m8bf66c3671" x="256" y="272.489781" style="fill: #004cb2; stroke: #004cb2"/>
     <use xlink:href="#m8bf66c3671" x="261.668571" y="271.811316" style="fill: #004cb2; stroke: #004cb2"/>
     <use xlink:href="#m8bf66c3671" x="267.337143" y="270.302317" style="fill: #004cb2; stroke: #004cb2"/>
     <use xlink:href="#m8bf66c3671" x="273.005714" y="240.449879" style="fill: #004cb2; stroke: #004cb2"/>
     <use xlink:href="#m8bf66c3671" x="278.674286" y="183.470558" style="fill: #004cb2; stroke: #004cb2"/>
     <use xlink:href="#m8bf66c3671" x="284.342857" y="172.930963" style="fill: #004cb2; stroke: #004cb2"/>
     <use xlink:href="#m8bf66c3671" x="290.011429" y="147.231195" style="fill: #004cb2; stroke: #004cb2"/>
     <use xlink:href="#m8bf66c3671" x="295.68" y="123.017031" style="fill: #004cb2; stroke: #004cb2"/>
     <use xlink:href="#m8bf66c3671" x="301.348571" y="108.324765" style="fill: #004cb2; stroke: #004cb2"/>
     <use xlink:href="#m8bf66c3671" x="307.017143" y="95.972032" style="fill: #004cb2; stroke: #004cb2"/>
     <use xlink:href="#m8bf66c3671" x="312.685714" y="76.682584" style="fill: #004cb2; stroke: #004cb2"/>
     <use xlink:href="#m8bf66c3671" x="318.354286" y="53.568" style="fill: #004cb2; stroke: #004cb2"/>
     <use xlink:href="#m8bf66c3671" x="324.022857" y="168.766594" style="fill: #004cb2; stroke: #004cb2"/>
     <use xlink:href="#m8bf66c3671" x="329.691429" y="285.31042" style="fill: #004cb2; stroke: #004cb2"/>
     <use xlink:href="#m8bf66c3671" x="335.36" y="289.06537" style="fill: #004cb2; stroke: #004cb2"/>
     <use xlink:href="#m8bf66c3671" x="341.028571" y="290.808322" style="fill: #004cb2; stroke: #004cb2"/>
     <use xlink:href="#m8bf66c3671" x="346.697143" y="290.480788" style="fill: #004cb2; stroke: #004cb2"/>
     <use xlink:href="#m8bf66c3671" x="352.365714" y="290.586067" style="fill: #004cb2; stroke: #004cb2"/>
     <use xlink:href="#m8bf66c3671" x="358.034286" y="290.188346" style="fill: #004cb2; stroke: #004cb2"/>
     <use xlink:href="#m8bf66c3671" x="363.702857" y="291.030578" style="fill: #004cb2; stroke: #004cb2"/>
     <use xlink:href="#m8bf66c3671" x="369.371429" y="291.241136" style="fill: #004cb2; stroke: #004cb2"/>
     <use xlink:href="#m8bf66c3671" x="375.04" y="291.498484" style="fill: #004cb2; stroke: #004cb2"/>
     <use xlink:href="#m8bf66c3671" x="380.708571" y="292.165251" style="fill: #004cb2; stroke: #004cb2"/>
     <use xlink:href="#m8bf66c3671" x="386.377143" y="291.475089" style="fill: #004cb2; stroke: #004cb2"/>
     <use xlink:href="#m8bf66c3671" x="392.045714" y="291.276229" style="fill: #004cb2; stroke: #004cb2"/>
     <use xlink:href="#m8bf66c3671" x="397.714286" y="291.779228" style="fill: #004cb2; stroke: #004cb2"/>
     <use xlink:href="#m8bf66c3671" x="403.382857" y="291.393205" style="fill: #004cb2; stroke: #004cb2"/>
     <use xlink:href="#m8bf66c3671" x="409.051429" y="291.615461" style="fill: #004cb2; stroke: #004cb2"/>
     <use xlink:href="#m8bf66c3671" x="414.72" y="290.866811" style="fill: #004cb2; stroke: #004cb2"/>
    </g>
   </g>
   <g id="patch_3">
    <path d="M 57.6 307.584 
L 57.6 41.472 
" style="fill: none; stroke: #000000; stroke-width: 0.8; stroke-linejoin: miter; stroke-linecap: square"/>
   </g>
   <g id="patch_4">
    <path d="M 414.72 307.584 
L 414.72 41.472 
" style="fill: none; stroke: #000000; stroke-width: 0.8; stroke-linejoin: miter; stroke-linecap: square"/>
   </g>
   <g id="patch_5">
    <path d="M 57.6 307.584 
L 414.72 307.584 
" style="fill: none; stroke: #000000; stroke-width: 0.8; stroke-linejoin: miter; stroke-linecap: square"/>
   </g>
   <g id="patch_6">
    <path d="M 57.6 41.472 
L 414.72 41.472 
" style="fill: none; stroke: #000000; stroke-width: 0.8; stroke-linejoin: miter; stroke-linecap: square"/>
   </g>
  </g>
  <g id="axes_2">
   <g id="matplotlib.axis_3">
    <g id="ytick_7">
     <g id="line2d_39">
      <defs>
       <path id="m8a664336d0" d="M 0 0 
L -3.5 0 
" style="stroke: #000000; stroke-width: 0.6"/>
      </defs>
      <g>
       <use xlink:href="#m8a664336d0" x="414.72" y="290.744471" style="stroke: #000000; stroke-width: 0.6"/>
      </g>
     </g>
     <g id="text_17">
      <!-- $\mathdefault{−6}$ -->
      <g transform="translate(418.22 295.725783) scale(0.144 -0.144)">
       <defs>
        <path id="CMSY10-0" d="M 4218 1472 
C 4326 1472 4442 1472 4442 1600 
C 4442 1728 4326 1728 4218 1728 
L 755 1728 
C 646 1728 531 1728 531 1600 
C 531 1472 646 1472 755 1472 
L 4218 1472 
z
" transform="scale(0.015625)"/>
       </defs>
       <use xlink:href="#CMSY10-0" transform="scale(0.996264)"/>
       <use xlink:href="#CMR17-36" transform="translate(77.487468 0) scale(0.996264)"/>
      </g>
     </g>
    </g>
    <g id="ytick_8">
     <g id="line2d_40">
      <g>
       <use xlink:href="#m8a664336d0" x="414.72" y="243.309176" style="stroke: #000000; stroke-width: 0.6"/>
      </g>
     </g>
     <g id="text_18">
      <!-- $\mathdefault{−4}$ -->
      <g transform="translate(418.22 248.290489) scale(0.144 -0.144)">
       <use xlink:href="#CMSY10-0" transform="scale(0.996264)"/>
       <use xlink:href="#CMR17-34" transform="translate(77.487468 0) scale(0.996264)"/>
      </g>
     </g>
    </g>
    <g id="ytick_9">
     <g id="line2d_41">
      <g>
       <use xlink:href="#m8a664336d0" x="414.72" y="195.873882" style="stroke: #000000; stroke-width: 0.6"/>
      </g>
     </g>
     <g id="text_19">
      <!-- $\mathdefault{−2}$ -->
      <g transform="translate(418.22 200.855195) scale(0.144 -0.144)">
       <use xlink:href="#CMSY10-0" transform="scale(0.996264)"/>
       <use xlink:href="#CMR17-32" transform="translate(77.487468 0) scale(0.996264)"/>
      </g>
     </g>
    </g>
    <g id="ytick_10">
     <g id="line2d_42">
      <g>
       <use xlink:href="#m8a664336d0" x="414.72" y="148.438588" style="stroke: #000000; stroke-width: 0.6"/>
      </g>
     </g>
     <g id="text_20">
      <!-- $\mathdefault{0}$ -->
      <g transform="translate(418.22 153.419901) scale(0.144 -0.144)">
       <use xlink:href="#CMR17-30" transform="scale(0.996264)"/>
      </g>
     </g>
    </g>
    <g id="ytick_11">
     <g id="line2d_43">
      <g>
       <use xlink:href="#m8a664336d0" x="414.72" y="101.003294" style="stroke: #000000; stroke-width: 0.6"/>
      </g>
     </g>
     <g id="text_21">
      <!-- $\mathdefault{2}$ -->
      <g transform="translate(418.22 105.984607) scale(0.144 -0.144)">
       <use xlink:href="#CMR17-32" transform="scale(0.996264)"/>
      </g>
     </g>
    </g>
    <g id="ytick_12">
     <g id="line2d_44">
      <g>
       <use xlink:href="#m8a664336d0" x="414.72" y="53.568" style="stroke: #000000; stroke-width: 0.6"/>
      </g>
     </g>
     <g id="text_22">
      <!-- $\mathdefault{4}$ -->
      <g transform="translate(418.22 58.549312) scale(0.144 -0.144)">
       <use xlink:href="#CMR17-34" transform="scale(0.996264)"/>
      </g>
     </g>
    </g>
    <g id="text_23">
     <!-- Relative Error [\%] -->
     <g transform="translate(451.161397 230.518992) rotate(-90) scale(0.144 -0.144)">
      <defs>
       <path id="CMR17-52" d="M 2509 2146 
C 3117 2268 3629 2676 3629 3186 
C 3629 3785 2950 4326 2054 4326 
L 333 4326 
L 333 4160 
C 774 4160 845 4160 845 3873 
L 845 415 
C 845 128 774 128 333 128 
L 333 -26 
C 518 -26 851 -26 1050 -26 
C 1248 -26 1581 -26 1766 -26 
L 1766 128 
C 1325 128 1254 128 1254 417 
L 1254 2112 
L 2003 2112 
C 2368 2112 2573 1964 2662 1881 
C 2918 1632 2918 1459 2918 1024 
C 2918 595 2918 377 3110 160 
C 3354 -102 3680 -128 3821 -128 
C 4294 -128 4365 396 4365 503 
C 4365 540 4365 585 4307 585 
C 4256 585 4250 547 4250 522 
C 4218 112 4032 -26 3834 -26 
C 3482 -26 3443 375 3405 764 
C 3386 898 3373 993 3360 1133 
C 3322 1452 3270 1917 2509 2146 
z
M 1984 2214 
L 1254 2214 
L 1254 3913 
C 1254 4129 1267 4160 1523 4160 
L 1990 4160 
C 2522 4160 3142 3977 3142 3190 
C 3142 2372 2464 2214 1984 2214 
z
" transform="scale(0.015625)"/>
       <path id="CMR17-61" d="M 2304 1653 
C 2304 2072 2304 2294 2035 2543 
C 1798 2752 1523 2816 1306 2816 
C 800 2816 435 2407 435 1971 
C 435 1728 627 1728 666 1728 
C 749 1728 896 1778 896 1954 
C 896 2112 774 2181 666 2181 
C 640 2181 608 2174 589 2168 
C 723 2592 1069 2714 1293 2714 
C 1613 2714 1965 2429 1965 1885 
L 1965 1600 
C 1587 1600 1133 1549 774 1357 
C 371 1133 256 813 256 570 
C 256 77 832 -64 1171 -64 
C 1523 -64 1850 139 1990 511 
C 2003 233 2182 -18 2464 -18 
C 2598 -18 2938 70 2938 567 
L 2938 920 
L 2822 920 
L 2822 562 
C 2822 178 2650 128 2566 128 
C 2304 128 2304 458 2304 738 
L 2304 1653 
z
M 1965 870 
C 1965 317 1568 38 1216 38 
C 896 38 646 275 646 570 
C 646 761 730 1100 1101 1305 
C 1408 1478 1760 1504 1965 1504 
L 1965 870 
z
" transform="scale(0.015625)"/>
       <path id="CMR17-76" d="M 2502 2163 
C 2560 2304 2662 2560 3034 2560 
L 3034 2726 
C 2912 2726 2752 2726 2630 2726 
C 2496 2726 2285 2726 2157 2732 
L 2157 2566 
C 2317 2553 2406 2477 2406 2311 
C 2406 2253 2406 2240 2368 2151 
L 1664 377 
L 902 2286 
C 864 2369 864 2381 864 2407 
C 864 2560 1075 2560 1171 2560 
L 1171 2732 
C 1018 2726 736 2726 576 2726 
C 403 2726 205 2726 64 2732 
L 64 2560 
C 307 2560 442 2560 518 2362 
L 1446 44 
C 1485 -51 1491 -64 1549 -64 
C 1606 -64 1613 -51 1651 44 
L 2502 2163 
z
" transform="scale(0.015625)"/>
       <path id="CMR17-45" d="M 3885 1615 
L 3770 1615 
C 3629 676 3546 166 2419 166 
L 1530 166 
C 1274 166 1261 197 1261 414 
L 1261 2176 
L 1862 2176 
C 2464 2176 2522 1960 2522 1430 
L 2637 1430 
L 2637 3081 
L 2522 3081 
C 2522 2557 2464 2342 1862 2342 
L 1261 2342 
L 1261 3913 
C 1261 4128 1274 4160 1530 4160 
L 2406 4160 
C 3398 4160 3514 3769 3603 2929 
L 3718 2929 
L 3565 4325 
L 326 4325 
L 326 4160 
C 768 4160 838 4160 838 3874 
L 838 451 
C 838 166 768 166 326 166 
L 326 0 
L 3654 0 
L 3885 1615 
z
" transform="scale(0.015625)"/>
       <path id="CMR17-6f" d="M 2758 1356 
C 2758 2176 2163 2816 1466 2816 
C 768 2816 173 2176 173 1356 
C 173 551 768 -64 1466 -64 
C 2163 -64 2758 551 2758 1356 
z
M 1466 51 
C 1165 51 909 230 762 480 
C 602 767 582 1126 582 1408 
C 582 1677 595 2010 762 2298 
C 890 2509 1139 2714 1466 2714 
C 1754 2714 1997 2554 2150 2330 
C 2349 2029 2349 1607 2349 1408 
C 2349 1158 2336 775 2163 467 
C 1984 173 1709 51 1466 51 
z
" transform="scale(0.015625)"/>
       <path id="CMR17-25" d="M 4640 959 
C 4640 1698 4275 2240 3846 2240 
C 3411 2240 2970 1736 2970 959 
C 2970 183 3405 -320 3846 -320 
C 4275 -320 4640 215 4640 959 
z
M 3853 -218 
C 3686 -218 3270 -66 3270 959 
C 3270 1991 3686 2138 3853 2138 
C 4205 2138 4525 1634 4525 959 
C 4525 285 4205 -218 3853 -218 
z
M 4083 4577 
C 4128 4647 4134 4653 4134 4685 
C 4134 4761 4077 4800 4026 4800 
C 3962 4800 3936 4756 3891 4706 
C 3520 4190 3008 4134 2746 4134 
C 2106 4134 1715 4494 1594 4607 
C 1510 4682 1389 4800 1171 4800 
C 736 4800 294 4296 294 3519 
C 294 2743 730 2240 1171 2240 
C 1600 2240 1965 2778 1965 3527 
C 1965 3969 1830 4270 1811 4308 
C 2202 4064 2586 4032 2752 4032 
C 3162 4032 3456 4183 3616 4289 
L 3622 4283 
L 858 -84 
C 800 -174 800 -187 800 -206 
C 800 -276 858 -320 915 -320 
C 973 -320 992 -289 1037 -218 
L 4083 4577 
z
M 1178 2342 
C 1011 2342 595 2494 595 3519 
C 595 4551 1011 4698 1178 4698 
C 1530 4698 1850 4194 1850 3519 
C 1850 2845 1530 2342 1178 2342 
z
" transform="scale(0.015625)"/>
      </defs>
      <use xlink:href="#CMR17-52" transform="scale(0.996264)"/>
      <use xlink:href="#CMR17-65" transform="translate(67.791102 0) scale(0.996264)"/>
      <use xlink:href="#CMR17-6c" transform="translate(108.276762 0) scale(0.996264)"/>
      <use xlink:href="#CMR17-61" transform="translate(133.147821 0) scale(0.996264)"/>
      <use xlink:href="#CMR17-74" transform="translate(178.838298 0) scale(0.996264)"/>
      <use xlink:href="#CMR17-69" transform="translate(214.119066 0) scale(0.996264)"/>
      <use xlink:href="#CMR17-76" transform="translate(238.990124 0) scale(0.996264)"/>
      <use xlink:href="#CMR17-65" transform="translate(284.680586 0) scale(0.996264)"/>
      <use xlink:href="#CMR17-45" transform="translate(355.242213 0) scale(0.996264)"/>
      <use xlink:href="#CMR17-72" transform="translate(417.828514 0) scale(0.996264)"/>
      <use xlink:href="#CMR17-72" transform="translate(453.109281 0) scale(0.996264)"/>
      <use xlink:href="#CMR17-6f" transform="translate(488.390049 0) scale(0.996264)"/>
      <use xlink:href="#CMR17-72" transform="translate(534.080526 0) scale(0.996264)"/>
      <use xlink:href="#CMR17-5b" transform="translate(599.43726 0) scale(0.996264)"/>
      <use xlink:href="#CMR17-25" transform="translate(624.308319 0) scale(0.996264)"/>
      <use xlink:href="#CMR17-5d" transform="translate(701.227909 0) scale(0.996264)"/>
     </g>
    </g>
   </g>
   <g id="line2d_45">
    <path d="M 57.6 152.509958 
L 63.268571 154.265547 
L 68.937143 133.509634 
L 74.605714 143.594932 
L 80.274286 136.948674 
L 85.942857 154.077857 
L 91.611429 154.615441 
L 97.28 146.2398 
L 102.948571 145.981771 
L 108.617143 151.082736 
L 114.285714 153.071228 
L 119.954286 159.178462 
L 125.622857 137.557677 
L 131.291429 149.374159 
L 136.96 141.371377 
L 142.628571 154.826818 
L 148.297143 139.219241 
L 153.965714 170.215537 
L 159.634286 135.99022 
L 165.302857 139.828688 
L 170.971429 135.502891 
L 176.64 147.694393 
L 182.308571 140.62358 
L 187.977143 137.9317 
L 193.645714 158.102297 
L 199.314286 138.282674 
L 204.982857 159.365875 
L 210.651429 147.291724 
L 216.32 140.740211 
L 221.988571 149.912546 
L 227.657143 149.701169 
L 233.325714 158.220369 
L 238.994286 138.096064 
L 244.662857 164.000315 
L 250.331429 156.652829 
L 256 163.298368 
L 261.668571 157.636133 
L 267.337143 145.352406 
L 273.005714 95.592816 
L 278.674286 105.892261 
L 284.342857 123.480129 
L 290.011429 104.581477 
L 295.68 138.731579 
L 301.348571 108.609601 
L 307.017143 135.583701 
L 312.685714 119.578582 
L 318.354286 148.438588 
L 324.022857 167.199029 
L 329.691429 241.535741 
L 335.36 245.392133 
L 341.028571 217.331784 
L 346.697143 212.371136 
L 352.365714 190.958846 
L 358.034286 190.350924 
L 363.702857 163.95322 
L 369.371429 181.223081 
L 375.04 145.60603 
L 380.708571 171.369964 
L 386.377143 134.701072 
L 392.045714 138.890153 
L 397.714286 125.94861 
L 403.382857 122.087897 
L 409.051429 110.269974 
L 414.72 102.220901 
" clip-path="url(#pf145561ccb)" style="fill: none; stroke: #f5c211; stroke-width: 0.8; stroke-linecap: square"/>
    <defs>
     <path id="m70bb8b9f6c" d="M 0 2.5 
C 0.663008 2.5 1.29895 2.236584 1.767767 1.767767 
C 2.236584 1.29895 2.5 0.663008 2.5 0 
C 2.5 -0.663008 2.236584 -1.29895 1.767767 -1.767767 
C 1.29895 -2.236584 0.663008 -2.5 0 -2.5 
C -0.663008 -2.5 -1.29895 -2.236584 -1.767767 -1.767767 
C -2.236584 -1.29895 -2.5 -0.663008 -2.5 0 
C -2.5 0.663008 -2.236584 1.29895 -1.767767 1.767767 
C -1.29895 2.236584 -0.663008 2.5 0 2.5 
z
" style="stroke: #f5c211"/>
    </defs>
    <g clip-path="url(#pf145561ccb)">
     <use xlink:href="#m70bb8b9f6c" x="57.6" y="152.509958" style="fill: #f5c211; stroke: #f5c211"/>
     <use xlink:href="#m70bb8b9f6c" x="63.268571" y="154.265547" style="fill: #f5c211; stroke: #f5c211"/>
     <use xlink:href="#m70bb8b9f6c" x="68.937143" y="133.509634" style="fill: #f5c211; stroke: #f5c211"/>
     <use xlink:href="#m70bb8b9f6c" x="74.605714" y="143.594932" style="fill: #f5c211; stroke: #f5c211"/>
     <use xlink:href="#m70bb8b9f6c" x="80.274286" y="136.948674" style="fill: #f5c211; stroke: #f5c211"/>
     <use xlink:href="#m70bb8b9f6c" x="85.942857" y="154.077857" style="fill: #f5c211; stroke: #f5c211"/>
     <use xlink:href="#m70bb8b9f6c" x="91.611429" y="154.615441" style="fill: #f5c211; stroke: #f5c211"/>
     <use xlink:href="#m70bb8b9f6c" x="97.28" y="146.2398" style="fill: #f5c211; stroke: #f5c211"/>
     <use xlink:href="#m70bb8b9f6c" x="102.948571" y="145.981771" style="fill: #f5c211; stroke: #f5c211"/>
     <use xlink:href="#m70bb8b9f6c" x="108.617143" y="151.082736" style="fill: #f5c211; stroke: #f5c211"/>
     <use xlink:href="#m70bb8b9f6c" x="114.285714" y="153.071228" style="fill: #f5c211; stroke: #f5c211"/>
     <use xlink:href="#m70bb8b9f6c" x="119.954286" y="159.178462" style="fill: #f5c211; stroke: #f5c211"/>
     <use xlink:href="#m70bb8b9f6c" x="125.622857" y="137.557677" style="fill: #f5c211; stroke: #f5c211"/>
     <use xlink:href="#m70bb8b9f6c" x="131.291429" y="149.374159" style="fill: #f5c211; stroke: #f5c211"/>
     <use xlink:href="#m70bb8b9f6c" x="136.96" y="141.371377" style="fill: #f5c211; stroke: #f5c211"/>
     <use xlink:href="#m70bb8b9f6c" x="142.628571" y="154.826818" style="fill: #f5c211; stroke: #f5c211"/>
     <use xlink:href="#m70bb8b9f6c" x="148.297143" y="139.219241" style="fill: #f5c211; stroke: #f5c211"/>
     <use xlink:href="#m70bb8b9f6c" x="153.965714" y="170.215537" style="fill: #f5c211; stroke: #f5c211"/>
     <use xlink:href="#m70bb8b9f6c" x="159.634286" y="135.99022" style="fill: #f5c211; stroke: #f5c211"/>
     <use xlink:href="#m70bb8b9f6c" x="165.302857" y="139.828688" style="fill: #f5c211; stroke: #f5c211"/>
     <use xlink:href="#m70bb8b9f6c" x="170.971429" y="135.502891" style="fill: #f5c211; stroke: #f5c211"/>
     <use xlink:href="#m70bb8b9f6c" x="176.64" y="147.694393" style="fill: #f5c211; stroke: #f5c211"/>
     <use xlink:href="#m70bb8b9f6c" x="182.308571" y="140.62358" style="fill: #f5c211; stroke: #f5c211"/>
     <use xlink:href="#m70bb8b9f6c" x="187.977143" y="137.9317" style="fill: #f5c211; stroke: #f5c211"/>
     <use xlink:href="#m70bb8b9f6c" x="193.645714" y="158.102297" style="fill: #f5c211; stroke: #f5c211"/>
     <use xlink:href="#m70bb8b9f6c" x="199.314286" y="138.282674" style="fill: #f5c211; stroke: #f5c211"/>
     <use xlink:href="#m70bb8b9f6c" x="204.982857" y="159.365875" style="fill: #f5c211; stroke: #f5c211"/>
     <use xlink:href="#m70bb8b9f6c" x="210.651429" y="147.291724" style="fill: #f5c211; stroke: #f5c211"/>
     <use xlink:href="#m70bb8b9f6c" x="216.32" y="140.740211" style="fill: #f5c211; stroke: #f5c211"/>
     <use xlink:href="#m70bb8b9f6c" x="221.988571" y="149.912546" style="fill: #f5c211; stroke: #f5c211"/>
     <use xlink:href="#m70bb8b9f6c" x="227.657143" y="149.701169" style="fill: #f5c211; stroke: #f5c211"/>
     <use xlink:href="#m70bb8b9f6c" x="233.325714" y="158.220369" style="fill: #f5c211; stroke: #f5c211"/>
     <use xlink:href="#m70bb8b9f6c" x="238.994286" y="138.096064" style="fill: #f5c211; stroke: #f5c211"/>
     <use xlink:href="#m70bb8b9f6c" x="244.662857" y="164.000315" style="fill: #f5c211; stroke: #f5c211"/>
     <use xlink:href="#m70bb8b9f6c" x="250.331429" y="156.652829" style="fill: #f5c211; stroke: #f5c211"/>
     <use xlink:href="#m70bb8b9f6c" x="256" y="163.298368" style="fill: #f5c211; stroke: #f5c211"/>
     <use xlink:href="#m70bb8b9f6c" x="261.668571" y="157.636133" style="fill: #f5c211; stroke: #f5c211"/>
     <use xlink:href="#m70bb8b9f6c" x="267.337143" y="145.352406" style="fill: #f5c211; stroke: #f5c211"/>
     <use xlink:href="#m70bb8b9f6c" x="273.005714" y="95.592816" style="fill: #f5c211; stroke: #f5c211"/>
     <use xlink:href="#m70bb8b9f6c" x="278.674286" y="105.892261" style="fill: #f5c211; stroke: #f5c211"/>
     <use xlink:href="#m70bb8b9f6c" x="284.342857" y="123.480129" style="fill: #f5c211; stroke: #f5c211"/>
     <use xlink:href="#m70bb8b9f6c" x="290.011429" y="104.581477" style="fill: #f5c211; stroke: #f5c211"/>
     <use xlink:href="#m70bb8b9f6c" x="295.68" y="138.731579" style="fill: #f5c211; stroke: #f5c211"/>
     <use xlink:href="#m70bb8b9f6c" x="301.348571" y="108.609601" style="fill: #f5c211; stroke: #f5c211"/>
     <use xlink:href="#m70bb8b9f6c" x="307.017143" y="135.583701" style="fill: #f5c211; stroke: #f5c211"/>
     <use xlink:href="#m70bb8b9f6c" x="312.685714" y="119.578582" style="fill: #f5c211; stroke: #f5c211"/>
     <use xlink:href="#m70bb8b9f6c" x="318.354286" y="148.438588" style="fill: #f5c211; stroke: #f5c211"/>
     <use xlink:href="#m70bb8b9f6c" x="324.022857" y="167.199029" style="fill: #f5c211; stroke: #f5c211"/>
     <use xlink:href="#m70bb8b9f6c" x="329.691429" y="241.535741" style="fill: #f5c211; stroke: #f5c211"/>
     <use xlink:href="#m70bb8b9f6c" x="335.36" y="245.392133" style="fill: #f5c211; stroke: #f5c211"/>
     <use xlink:href="#m70bb8b9f6c" x="341.028571" y="217.331784" style="fill: #f5c211; stroke: #f5c211"/>
     <use xlink:href="#m70bb8b9f6c" x="346.697143" y="212.371136" style="fill: #f5c211; stroke: #f5c211"/>
     <use xlink:href="#m70bb8b9f6c" x="352.365714" y="190.958846" style="fill: #f5c211; stroke: #f5c211"/>
     <use xlink:href="#m70bb8b9f6c" x="358.034286" y="190.350924" style="fill: #f5c211; stroke: #f5c211"/>
     <use xlink:href="#m70bb8b9f6c" x="363.702857" y="163.95322" style="fill: #f5c211; stroke: #f5c211"/>
     <use xlink:href="#m70bb8b9f6c" x="369.371429" y="181.223081" style="fill: #f5c211; stroke: #f5c211"/>
     <use xlink:href="#m70bb8b9f6c" x="375.04" y="145.60603" style="fill: #f5c211; stroke: #f5c211"/>
     <use xlink:href="#m70bb8b9f6c" x="380.708571" y="171.369964" style="fill: #f5c211; stroke: #f5c211"/>
     <use xlink:href="#m70bb8b9f6c" x="386.377143" y="134.701072" style="fill: #f5c211; stroke: #f5c211"/>
     <use xlink:href="#m70bb8b9f6c" x="392.045714" y="138.890153" style="fill: #f5c211; stroke: #f5c211"/>
     <use xlink:href="#m70bb8b9f6c" x="397.714286" y="125.94861" style="fill: #f5c211; stroke: #f5c211"/>
     <use xlink:href="#m70bb8b9f6c" x="403.382857" y="122.087897" style="fill: #f5c211; stroke: #f5c211"/>
     <use xlink:href="#m70bb8b9f6c" x="409.051429" y="110.269974" style="fill: #f5c211; stroke: #f5c211"/>
     <use xlink:href="#m70bb8b9f6c" x="414.72" y="102.220901" style="fill: #f5c211; stroke: #f5c211"/>
    </g>
   </g>
   <g id="patch_7">
    <path d="M 57.6 307.584 
L 57.6 41.472 
" style="fill: none; stroke: #000000; stroke-width: 0.8; stroke-linejoin: miter; stroke-linecap: square"/>
   </g>
   <g id="patch_8">
    <path d="M 414.72 307.584 
L 414.72 41.472 
" style="fill: none; stroke: #000000; stroke-width: 0.8; stroke-linejoin: miter; stroke-linecap: square"/>
   </g>
   <g id="patch_9">
    <path d="M 57.6 307.584 
L 414.72 307.584 
" style="fill: none; stroke: #000000; stroke-width: 0.8; stroke-linejoin: miter; stroke-linecap: square"/>
   </g>
   <g id="patch_10">
    <path d="M 57.6 41.472 
L 414.72 41.472 
" style="fill: none; stroke: #000000; stroke-width: 0.8; stroke-linejoin: miter; stroke-linecap: square"/>
   </g>
  </g>
  <g id="legend_1">
   <g id="patch_11">
    <path d="M 64.8 116.080581 
L 231.203163 116.080581 
L 231.203163 48.672 
L 64.8 48.672 
z
" style="fill: #ffffff; stroke: #000000; stroke-width: 0.5; stroke-linejoin: miter"/>
   </g>
   <g id="line2d_46">
    <path d="M 72 60.912 
L 86.4 60.912 
L 100.8 60.912 
" style="fill: none; stroke: #e01b24; stroke-width: 0.8; stroke-linecap: square"/>
    <g>
     <use xlink:href="#m81151fe885" x="86.4" y="60.912" style="fill: #e01b24; stroke: #e01b24"/>
    </g>
   </g>
   <g id="text_24">
    <!-- Operational AGM -->
    <g transform="translate(112.32 65.952) scale(0.144 -0.144)">
     <defs>
      <path id="CMR17-47" d="M 3974 1233 
C 3974 1473 3994 1505 4390 1505 
L 4390 1670 
C 4237 1664 3891 1664 3718 1664 
C 3539 1664 3040 1664 2797 1664 
L 2797 1505 
L 2989 1505 
C 3539 1505 3552 1434 3552 1201 
L 3552 774 
C 3552 63 2720 63 2522 63 
C 1862 63 781 511 781 2160 
C 781 3808 1843 4250 2464 4250 
C 3187 4250 3712 3626 3834 2741 
C 3846 2664 3846 2651 3904 2651 
C 3974 2651 3974 2664 3974 2779 
L 3974 4288 
C 3974 4402 3968 4409 3930 4409 
C 3904 4409 3898 4402 3853 4326 
L 3571 3791 
C 3258 4187 2874 4416 2381 4416 
C 1286 4416 294 3456 294 2148 
C 294 845 1267 -128 2394 -128 
C 2912 -128 3418 56 3616 417 
C 3725 158 3904 -20 3936 -20 
C 3968 -20 3974 -13 3974 100 
L 3974 1233 
z
" transform="scale(0.015625)"/>
      <path id="CMR17-4d" d="M 1338 4224 
C 1299 4320 1293 4320 1158 4320 
L 339 4320 
L 339 4160 
C 781 4160 851 4160 851 3875 
L 851 610 
C 851 451 851 153 339 153 
L 339 -13 
C 486 0 755 0 915 0 
C 1075 0 1344 0 1491 -13 
L 1491 153 
C 979 153 979 451 979 610 
L 979 4135 
L 986 4135 
L 2490 89 
C 2515 25 2528 -13 2579 -13 
C 2630 -13 2643 25 2669 89 
L 4186 4166 
L 4192 4166 
L 4192 438 
C 4192 153 4122 153 3680 153 
L 3680 -13 
C 3853 0 4198 0 4384 0 
C 4570 0 4922 0 5094 -13 
L 5094 153 
C 4653 153 4582 153 4582 438 
L 4582 3875 
C 4582 4160 4653 4160 5094 4160 
L 5094 4320 
L 4282 4320 
C 4147 4320 4141 4314 4102 4218 
L 2720 502 
L 1338 4224 
z
" transform="scale(0.015625)"/>
     </defs>
     <use xlink:href="#CMR17-4f" transform="scale(0.996264)"/>
     <use xlink:href="#CMR17-70" transform="translate(71.714788 0) scale(0.996264)"/>
     <use xlink:href="#CMR17-65" transform="translate(125.212597 0) scale(0.996264)"/>
     <use xlink:href="#CMR17-72" transform="translate(165.698257 0) scale(0.996264)"/>
     <use xlink:href="#CMR17-61" transform="translate(200.979025 0) scale(0.996264)"/>
     <use xlink:href="#CMR17-74" transform="translate(246.669502 0) scale(0.996264)"/>
     <use xlink:href="#CMR17-69" transform="translate(281.95027 0) scale(0.996264)"/>
     <use xlink:href="#CMR17-6f" transform="translate(306.821329 0) scale(0.996264)"/>
     <use xlink:href="#CMR17-6e" transform="translate(352.511806 0) scale(0.996264)"/>
     <use xlink:href="#CMR17-61" transform="translate(403.407175 0) scale(0.996264)"/>
     <use xlink:href="#CMR17-6c" transform="translate(449.097653 0) scale(0.996264)"/>
     <use xlink:href="#CMR17-41" transform="translate(504.044677 0) scale(0.996264)"/>
     <use xlink:href="#CMR17-47" transform="translate(570.514653 0) scale(0.996264)"/>
     <use xlink:href="#CMR17-4d" transform="translate(642.869999 0) scale(0.996264)"/>
    </g>
   </g>
   <g id="line2d_47">
    <path d="M 72 80.981527 
L 86.4 80.981527 
L 100.8 80.981527 
" style="fill: none; stroke: #004cb2; stroke-width: 0.8; stroke-linecap: square"/>
    <g>
     <use xlink:href="#m8bf66c3671" x="86.4" y="80.981527" style="fill: #004cb2; stroke: #004cb2"/>
    </g>
   </g>
   <g id="text_25">
    <!-- New AGM -->
    <g transform="translate(112.32 86.021527) scale(0.144 -0.144)">
     <defs>
      <path id="CMR17-4e" d="M 1312 4250 
C 1267 4320 1261 4320 1139 4320 
L 326 4320 
L 326 4160 
L 448 4160 
C 704 4160 819 4129 838 4122 
L 838 610 
C 838 451 838 153 326 153 
L 326 -13 
C 474 0 742 0 902 0 
C 1062 0 1331 0 1478 -13 
L 1478 153 
C 966 153 966 451 966 610 
L 966 4033 
C 1011 3995 1011 3982 1056 3919 
L 3430 76 
C 3475 0 3494 0 3526 0 
C 3590 0 3590 19 3590 139 
L 3590 3705 
C 3590 3863 3590 4160 4102 4160 
L 4102 4326 
C 3955 4320 3686 4320 3526 4320 
C 3366 4320 3098 4320 2950 4326 
L 2950 4160 
C 3462 4160 3462 3862 3462 3703 
L 3462 763 
L 1312 4250 
z
" transform="scale(0.015625)"/>
      <path id="CMR17-77" d="M 3725 2183 
C 3853 2560 4109 2560 4205 2560 
L 4205 2732 
C 4077 2732 3949 2732 3821 2732 
C 3699 2732 3424 2732 3315 2738 
L 3315 2560 
C 3514 2560 3622 2445 3622 2286 
C 3622 2241 3610 2184 3597 2140 
L 2995 407 
L 2342 2275 
C 2330 2319 2310 2370 2310 2395 
C 2310 2560 2528 2560 2630 2560 
L 2630 2738 
C 2483 2732 2214 2732 2061 2732 
C 1901 2732 1734 2732 1587 2738 
L 1587 2560 
C 1939 2560 1939 2547 2074 2149 
L 1485 451 
L 851 2281 
C 819 2363 819 2376 819 2395 
C 819 2560 1037 2560 1139 2560 
L 1139 2738 
C 986 2732 717 2732 557 2732 
C 416 2732 198 2732 64 2738 
L 64 2560 
C 346 2560 416 2541 486 2331 
L 1274 49 
C 1299 -33 1318 -52 1370 -52 
C 1414 -52 1440 -39 1472 56 
L 2131 1980 
L 2797 56 
C 2829 -39 2854 -52 2899 -52 
C 2950 -52 2970 -33 2995 50 
L 3725 2183 
z
" transform="scale(0.015625)"/>
     </defs>
     <use xlink:href="#CMR17-4e" transform="scale(0.996264)"/>
     <use xlink:href="#CMR17-65" transform="translate(69.07243 0) scale(0.996264)"/>
     <use xlink:href="#CMR17-77" transform="translate(109.55809 0) scale(0.996264)"/>
     <use xlink:href="#CMR17-41" transform="translate(206.143937 0) scale(0.996264)"/>
     <use xlink:href="#CMR17-47" transform="translate(272.613913 0) scale(0.996264)"/>
     <use xlink:href="#CMR17-4d" transform="translate(344.969259 0) scale(0.996264)"/>
    </g>
   </g>
   <g id="line2d_48">
    <path d="M 72 101.051054 
L 86.4 101.051054 
L 100.8 101.051054 
" style="fill: none; stroke: #f5c211; stroke-width: 0.8; stroke-linecap: square"/>
    <g>
     <use xlink:href="#m70bb8b9f6c" x="86.4" y="101.051054" style="fill: #f5c211; stroke: #f5c211"/>
    </g>
   </g>
   <g id="text_26">
    <!-- Relative Error -->
    <g transform="translate(112.32 106.091054) scale(0.144 -0.144)">
     <use xlink:href="#CMR17-52" transform="scale(0.996264)"/>
     <use xlink:href="#CMR17-65" transform="translate(67.791102 0) scale(0.996264)"/>
     <use xlink:href="#CMR17-6c" transform="translate(108.276762 0) scale(0.996264)"/>
     <use xlink:href="#CMR17-61" transform="translate(133.147821 0) scale(0.996264)"/>
     <use xlink:href="#CMR17-74" transform="translate(178.838298 0) scale(0.996264)"/>
     <use xlink:href="#CMR17-69" transform="translate(214.119066 0) scale(0.996264)"/>
     <use xlink:href="#CMR17-76" transform="translate(238.990124 0) scale(0.996264)"/>
     <use xlink:href="#CMR17-65" transform="translate(284.680586 0) scale(0.996264)"/>
     <use xlink:href="#CMR17-45" transform="translate(355.242213 0) scale(0.996264)"/>
     <use xlink:href="#CMR17-72" transform="translate(417.828514 0) scale(0.996264)"/>
     <use xlink:href="#CMR17-72" transform="translate(453.109281 0) scale(0.996264)"/>
     <use xlink:href="#CMR17-6f" transform="translate(488.390049 0) scale(0.996264)"/>
     <use xlink:href="#CMR17-72" transform="translate(534.080526 0) scale(0.996264)"/>
    </g>
   </g>
  </g>
 </g>
 <defs>
  <clipPath id="pf145561ccb">
   <rect x="57.6" y="41.472" width="357.12" height="266.112"/>
  </clipPath>
 </defs>
</svg>
